<?xml version="1.0" encoding="UTF-8" standalone="no"?>
<svg
   fill="none"
   viewBox="0 0 80089 4096"
   version="1.1"
   id="svg1"
   sodipodi:docname="ballecerdigital.svg"
   xml:space="preserve"
   inkscape:version="1.3.2 (091e20e, 2023-11-25, custom)"
   width="80089"
   height="4096"
   xmlns:inkscape="http://www.inkscape.org/namespaces/inkscape"
   xmlns:sodipodi="http://sodipodi.sourceforge.net/DTD/sodipodi-0.dtd"
   xmlns="http://www.w3.org/2000/svg"
   xmlns:svg="http://www.w3.org/2000/svg"><defs
     id="defs1" /><sodipodi:namedview
     id="namedview1"
     pagecolor="#ffffff"
     bordercolor="#000000"
     borderopacity="0.25"
     inkscape:showpageshadow="2"
     inkscape:pageopacity="0.0"
     inkscape:pagecheckerboard="0"
     inkscape:deskcolor="#d1d1d1"
     inkscape:zoom="1.1342756"
     inkscape:cx="181.61371"
     inkscape:cy="-28.652648"
     inkscape:window-width="1366"
     inkscape:window-height="697"
     inkscape:window-x="-8"
     inkscape:window-y="-8"
     inkscape:window-maximized="1"
     inkscape:current-layer="svg1" /><g
     id="g358810"
     inkscape:export-filename="ballecerdigital.svg"
     inkscape:export-xdpi="96"
     inkscape:export-ydpi="96"
     transform="matrix(0.10694719,0,0,0.10694719,56.58267,93.381038)"><path
       style="fill:#8e9c8e"
       d="m -255.74924,-275.33399 c 0.72187,-0.28887 1.58437,-0.25334 1.91666,0.0789 0.33229,0.33229 -0.25833,0.56864 -1.3125,0.52522 -1.16494,-0.048 -1.4019,-0.28494 -0.60416,-0.60417 z m -6.0625,-0.97916 c 0.6875,-0.27742 1.8125,-0.27742 2.5,0 0.6875,0.27741 0.125,0.50438 -1.25,0.50438 -1.375,0 -1.9375,-0.22697 -1.25,-0.50438 z m 84,0 c 0.6875,-0.27742 1.8125,-0.27742 2.5,0 0.6875,0.27741 0.125,0.50438 -1.25,0.50438 -1.375,0 -1.9375,-0.22697 -1.25,-0.50438 z m -87.9375,-1.02084 c 0.72187,-0.28887 1.58437,-0.25334 1.91666,0.0789 0.33229,0.33229 -0.25833,0.56864 -1.3125,0.52522 -1.16494,-0.048 -1.4019,-0.28494 -0.60416,-0.60417 z m 93,0 c 0.72187,-0.28887 1.58437,-0.25334 1.91666,0.0789 0.33229,0.33229 -0.25833,0.56864 -1.3125,0.52522 -1.16494,-0.048 -1.4019,-0.28494 -0.60416,-0.60417 z m 32.69458,-6.30543 c -0.35034,-0.56686 0.0511,-0.73451 0.94098,-0.39301 1.73242,0.66479 2.04938,1.38156 0.61095,1.38156 -0.51754,0 -1.21591,-0.44485 -1.55193,-0.98855 z m 102.49292,0.59553 c 0,-0.21615 0.69837,-0.661 1.55193,-0.98854 0.88993,-0.3415 1.29133,-0.17385 0.94099,0.39301 -0.58726,0.9502 -2.49292,1.40545 -2.49292,0.59553 z m 15.5,-10.60698 c 2.14824,-2.2 4.13089,-4 4.40589,-4 0.275,0 -1.25765,1.8 -3.40589,4 -2.14825,2.2 -4.1309,4 -4.4059,4 -0.275,0 1.25765,-1.8 3.4059,-4 z m -333.01877,-33.25 -9.98123,-10.25 10.25,9.98123 c 5.6375,5.48969 10.25,10.10219 10.25,10.25 0,0.72337 -1.24815,-0.46099 -10.51877,-9.98123 z m 349.00939,-202.25 c 10e-6,-114.4 0.11671,-161.05159 0.25934,-103.6702 0.14262,57.3814 0.14261,150.9814 -3e-5,208 -0.14263,57.01861 -0.25933,10.0702 -0.25931,-104.3298 z m -491.49062,154 c -1.375,-0.78602 -2.02351,-1.44508 -1.44113,-1.46457 0.58237,-0.0195 1.93237,0.62525 3,1.43276 2.46897,1.86744 1.68038,1.88353 -1.55887,0.0318 z m -25.54112,-23.56654 c -0.36254,-0.58659 -0.44469,-1.281 -0.18256,-1.54312 0.26213,-0.26213 0.74307,0.21781 1.06875,1.06653 0.67619,1.7621 0.0999,2.07206 -0.88619,0.47659 z m -5.96826,-223.43346 c 10e-6,-114.4 0.11671,-161.05159 0.25934,-103.6702 0.14262,57.3814 0.14261,150.9814 -3e-5,208 -0.14263,57.01861 -0.25933,10.0702 -0.25931,-104.3298 z m 349.48963,-102.25 -9.48025,-9.75 9.71419,9.44459 9.71419,9.44459 0.32343,-10.94459 0.32342,-10.94459 0.21238,11.25 c 0.11681,6.1875 -0.134,11.25 -0.55736,11.25 -0.42337,0 -5.03587,-4.3875 -10.25,-9.75 z m -14.10781,-13 c -1.24387,-1.58606 -1.2085,-1.62143 0.37756,-0.37756 1.66574,1.30637 2.19547,2.12756 1.37244,2.12756 -0.20765,0 -0.99515,-0.7875 -1.75,-1.75 z m 30.15818,-13.75 c 0,-0.55 0.43622,-1.675 0.96938,-2.5 0.53315,-0.825 0.96937,-1.05 0.96937,-0.5 0,0.55 -0.43622,1.675 -0.96937,2.5 -0.53316,0.825 -0.96938,1.05 -0.96938,0.5 z m 150.42826,-1.56653 c -0.36254,-0.5866 -0.44469,-1.281 -0.18256,-1.54313 0.26213,-0.26213 0.74307,0.21781 1.06875,1.06653 0.67619,1.76211 0.0999,2.07206 -0.88619,0.4766 z m -135.45888,-17.36311 c 0,-0.275 0.9,-0.98166 2,-1.57036 1.1,-0.58871 2,-0.84537 2,-0.57037 0,0.275 -0.9,0.98166 -2,1.57037 -1.1,0.5887 -2,0.84536 -2,0.57036 z m 118.5,-1.57036 c -1.65,-1.09276 -2.55,-1.97978 -2,-1.97118 1.00264,0.0157 6.43973,3.91294 5.5,3.94235 -0.275,0.009 -1.85,-0.87842 -3.5,-1.97117 z m -316.75,-5.66228 c 0.6875,-0.27742 1.8125,-0.27742 2.5,0 0.6875,0.27741 0.125,0.50438 -1.25,0.50438 -1.375,0 -1.9375,-0.22697 -1.25,-0.50438 z m 59.0625,-0.0208 c 0.72187,-0.28887 1.58437,-0.25334 1.91666,0.079 0.33229,0.33229 -0.25833,0.56864 -1.3125,0.52522 -1.16494,-0.048 -1.4019,-0.28494 -0.60416,-0.60417 z m -37.51056,-1.06301 c 5.39106,-0.18015 13.94106,-0.17937 19,0.002 5.05893,0.18111 0.64806,0.32851 -9.80194,0.32754 -10.45,-9.6e-4 -14.58913,-0.14914 -9.19806,-0.32929 z m 192.28312,-0.18359 c 0.9648,-0.90643 8.27504,-2.67282 7.41494,-1.79169 -0.275,0.28172 -2.26172,0.99351 -4.41494,1.58175 -2.15321,0.58824 -3.50321,0.68271 -3,0.20994 z m 86.91494,-0.60786 c -3.97088,-1.3738 -3.97452,-1.37975 -0.5,-0.8178 1.925,0.31135 3.9275,0.96867 4.45,1.46073 1.16804,1.09999 1.01648,1.07532 -3.95,-0.64293 z m -477.46938,-64.96242 c 0,-0.55 0.43622,-1.675 0.96938,-2.5 0.53315,-0.825 0.96937,-1.05 0.96937,-0.5 0,0.55 -0.43622,1.675 -0.96937,2.5 -0.53316,0.825 -0.96938,1.05 -0.96938,0.5 z m 133.41051,-20.05517 c -1.86403,-1.49339 -1.85176,-1.51186 0.30887,-0.46482 1.2375,0.5997 2.25,1.29952 2.25,1.55517 0,0.76522 -0.51861,0.54424 -2.55887,-1.09035 z m -100.62863,-8.12795 c 0.72187,-0.28887 1.58437,-0.25334 1.91666,0.079 0.33229,0.33229 -0.25833,0.56864 -1.3125,0.52522 -1.16494,-0.048 -1.4019,-0.28494 -0.60416,-0.60417 z m 84,0 c 0.72187,-0.28887 1.58437,-0.25334 1.91666,0.079 0.33229,0.33229 -0.25833,0.56864 -1.3125,0.52522 -1.16494,-0.048 -1.4019,-0.28494 -0.60416,-0.60417 z"
       id="path358809" /><path
       style="fill:#586e59"
       d="m -106.31174,-278.3995 c 10.3125,-0.16253 27.1875,-0.16253 37.5,0 10.3125,0.16253 1.875,0.29551 -18.75,0.29551 -20.625,0 -29.0625,-0.13298 -18.75,-0.29551 z m -21.4375,-0.93449 c 0.72187,-0.28887 1.58437,-0.25334 1.91666,0.0789 0.33229,0.33229 -0.25833,0.56864 -1.3125,0.52522 -1.16494,-0.048 -1.4019,-0.28494 -0.60416,-0.60417 z m 79,0 c 0.72187,-0.28887 1.58437,-0.25334 1.91666,0.0789 0.33229,0.33229 -0.25833,0.56864 -1.3125,0.52522 -1.16494,-0.048 -1.4019,-0.28494 -0.60416,-0.60417 z m 14.27083,-5.68143 c 0.22917,-0.2005 1.54167,-0.90032 2.91667,-1.55517 2.35726,-1.12264 2.38917,-1.10183 0.55887,0.36455 -1.593,1.27626 -4.84787,2.39128 -3.47554,1.19062 z m 19.48096,-17.92858 c 0.37553,-0.98622 0.93469,-1.54122 1.24258,-1.23334 0.30788,0.30789 6.3e-4,1.1148 -0.68279,1.79313 -0.98761,0.98027 -1.10248,0.86541 -0.55979,-0.55979 z m -328.15931,-12.95687 -1.90498,-2.25 2.25,1.90498 c 2.11444,1.79022 2.70524,2.59502 1.90498,2.59502 -0.18975,0 -1.20225,-1.0125 -2.25,-2.25 z m 334.67396,-0.33334 c 0.048,-1.16494 0.28494,-1.4019 0.60417,-0.60416 0.28887,0.72187 0.25334,1.58437 -0.0789,1.91666 -0.33229,0.33229 -0.56864,-0.25833 -0.52522,-1.3125 z m 1,-4 c 0.048,-1.16494 0.28494,-1.4019 0.60417,-0.60416 0.28887,0.72187 0.25334,1.58437 -0.0789,1.91666 -0.33229,0.33229 -0.56864,-0.25833 -0.52522,-1.3125 z m -359.2065,-19.16666 c -1.24387,-1.58606 -1.2085,-1.62143 0.37756,-0.37756 0.9625,0.75485 1.75,1.54235 1.75,1.75 0,0.82304 -0.82119,0.2933 -2.12756,-1.37244 z m -99.62244,-31.99863 c 10.3125,-0.16253 27.1875,-0.16253 37.5,0 10.3125,0.16253 1.875,0.29551 -18.75,0.29551 -20.625,0 -29.0625,-0.13298 -18.75,-0.29551 z m -47.79706,-15.50137 -3.95294,-4.25 4.25,3.95294 c 2.3375,2.17412 4.25,4.08663 4.25,4.25 0,0.75658 -0.87085,-4.9e-4 -4.54706,-3.95294 z m -6.99406,-8.81654 c -0.36254,-0.58659 -0.44469,-1.281 -0.18256,-1.54312 0.26213,-0.26213 0.74307,0.21781 1.06875,1.06653 0.67619,1.7621 0.0999,2.07206 -0.88619,0.47659 z m -6.37994,-13.5168 c 0.048,-1.16494 0.28494,-1.4019 0.60417,-0.60416 0.28887,0.72187 0.25334,1.58437 -0.0789,1.91666 -0.33229,0.33229 -0.56864,-0.25833 -0.52522,-1.3125 z m -1,-4 c 0.048,-1.16494 0.28494,-1.4019 0.60417,-0.60416 0.28887,0.72187 0.25334,1.58437 -0.0789,1.91666 -0.33229,0.33229 -0.56864,-0.25833 -0.52522,-1.3125 z m 360,-325 c 0.048,-1.16494 0.28494,-1.4019 0.60417,-0.60416 0.28887,0.72187 0.25334,1.58437 -0.0789,1.91666 -0.33229,0.33229 -0.56864,-0.25833 -0.52522,-1.3125 z m 161,0 c 0.048,-1.16494 0.28494,-1.4019 0.60417,-0.60416 0.28887,0.72187 0.25334,1.58437 -0.0789,1.91666 -0.33229,0.33229 -0.56864,-0.25833 -0.52522,-1.3125 z m -160,-4 c 0.048,-1.16494 0.28494,-1.4019 0.60417,-0.60416 0.28887,0.72187 0.25334,1.58437 -0.0789,1.91666 -0.33229,0.33229 -0.56864,-0.25833 -0.52522,-1.3125 z m 159,0 c 0.048,-1.16494 0.28494,-1.4019 0.60417,-0.60416 0.28887,0.72187 0.25334,1.58437 -0.0789,1.91666 -0.33229,0.33229 -0.56864,-0.25833 -0.52522,-1.3125 z m -358.85881,-57.91666 c -0.13609,-15.4 -0.47899,-29.125 -0.762,-30.5 l -0.51455,-2.5 1.04356,2.37861 c 0.66684,1.51993 0.94192,12.53054 0.762,30.5 l -0.28156,28.12139 z m 16.59237,23.81688 c 0.72187,-0.28887 1.58437,-0.25334 1.91666,0.079 0.33229,0.33229 -0.25833,0.56864 -1.3125,0.52522 -1.16494,-0.048 -1.4019,-0.28494 -0.60416,-0.60417 z m 68,0 c 0.72187,-0.28887 1.58437,-0.25334 1.91666,0.079 0.33229,0.33229 -0.25833,0.56864 -1.3125,0.52522 -1.16494,-0.048 -1.4019,-0.28494 -0.60416,-0.60417 z m -59.0625,-1.02262 c 1.2375,-0.23835 3.2625,-0.23835 4.5,0 1.2375,0.23836 0.225,0.43337 -2.25,0.43337 -2.475,0 -3.4875,-0.19501 -2.25,-0.43337 z m 47,0 c 1.2375,-0.23835 3.2625,-0.23835 4.5,0 1.2375,0.23836 0.225,0.43337 -2.25,0.43337 -2.475,0 -3.4875,-0.19501 -2.25,-0.43337 z m -233.67106,-53.8776 c 0.048,-1.16494 0.28494,-1.4019 0.60417,-0.60416 0.28887,0.72187 0.25334,1.58437 -0.0789,1.91666 -0.33229,0.33229 -0.56864,-0.25833 -0.52522,-1.3125 z m 1,-4 c 0.048,-1.16494 0.28494,-1.4019 0.60417,-0.60416 0.28887,0.72187 0.25334,1.58437 -0.0789,1.91666 -0.33229,0.33229 -0.56864,-0.25833 -0.52522,-1.3125 z m 11.92106,-20.91666 c 1.29174,-1.375 2.57362,-2.5 2.84862,-2.5 0.275,0 -0.55688,1.125 -1.84862,2.5 -1.29175,1.375 -2.57363,2.5 -2.84863,2.5 -0.275,0 0.55688,-1.125 1.84863,-2.5 z m 5,-4.92964 c 0,-0.275 0.9,-0.98166 2,-1.57036 1.1,-0.58871 2,-0.84537 2,-0.57037 0,0.275 -0.9,0.98166 -2,1.57037 -1.1,0.5887 -2,0.84536 -2,0.57036 z m 12.73333,-7.69445 c 0.67833,-0.68342 1.48524,-0.99067 1.79313,-0.68279 0.30788,0.30789 -0.24712,0.86705 -1.23334,1.24258 -1.42519,0.54269 -1.54006,0.42782 -0.55979,-0.55979 z m 98.26667,0.12409 c -0.825,-0.53316 -1.05,-0.96938 -0.5,-0.96938 0.55,0 1.675,0.43622 2.5,0.96938 0.825,0.53315 1.05,0.96937 0.5,0.96937 -0.55,0 -1.675,-0.43622 -2.5,-0.96937 z"
       id="path358808" /><path
       style="fill:#338500"
       d="m -240.56174,-333.18425 c -42.45289,-6.60509 -77.9424,-32.63041 -97.52596,-71.51816 l -3.55221,-7.05375 3.78908,0.7789 c 5.28476,1.08636 39.78822,0.77554 45.45878,-0.40951 l 4.6697,-0.97589 7.79177,8.51363 c 12.47736,13.63332 22.95807,20.45683 40.14633,26.13743 21.20714,7.00881 48.1365,5.97015 68.46559,-2.64071 27.01632,-11.44339 47.55603,-36.02685 55.21909,-66.09035 4.4554,-17.4793 5.50768,-32.7075 3.43487,-49.70821 -5.53514,-45.39783 -31.7292,-77.26871 -72.39704,-88.08704 -8.43981,-2.24514 -12.18427,-2.67284 -24,-2.74132 -12.05944,-0.0699 -15.50406,0.29445 -24.85087,2.62862 -12.91979,3.22644 -25.84179,9.57296 -36.11778,17.73891 -14.16122,11.25341 -26.94657,31.1391 -32.44339,50.46083 -1.68571,5.92536 -4.04867,23.17284 -4.06964,29.70468 l -0.0183,5.70469 -3.75,0.79531 c -2.0625,0.43743 -9.6,0.78101 -16.75,0.76351 -10.35825,-0.0253 -14.49869,-0.47409 -20.37499,-2.20831 -4.05624,-1.19708 -7.62596,-2.42749 -7.93271,-2.73424 -1.01616,-1.01616 1.83112,-25.84232 4.24643,-37.02564 11.10583,-51.42208 47.06378,-89.89762 96.06127,-102.78698 13.99112,-3.68053 23.73457,-4.71831 40.5,-4.31367 23.93219,0.57762 45.08635,6.73134 65,18.90843 13.07082,7.99273 27.35628,21.25959 33.81699,31.4057 1.47565,2.31742 3.02051,4.22992 3.43301,4.25 0.4125,0.0201 0.75,-33.93848 0.75,-75.46348 v -75.5 h 24 24 v 194.5 194.5 h -24 -24 v -26.5 c 0,-14.575 -0.3375,-26.47361 -0.75,-26.44134 -0.4125,0.0323 -2.7405,3.16414 -5.17333,6.95973 -7.94077,12.38883 -23.86602,26.69218 -39.20671,35.21373 -7.13926,3.96576 -23.52821,10.2937 -28.86996,11.14698 -1.925,0.3075 -5.75,1.03019 -8.5,1.60599 -8.78766,1.83997 -35.96034,2.12135 -46.5,0.48153 z m -94.5,-91.56646 c -17.51748,-2.49902 -28.45362,-5.82942 -42.7877,-13.03021 -15.2955,-7.68376 -33.18325,-23.15004 -41.2123,-35.63338 -2.2,-3.42049 -4.3375,-6.22302 -4.75,-6.22783 -0.4125,-0.005 -0.75,11.69126 -0.75,25.99126 v 26 h -23.5 -23.5 v -194.5 -194.5 h 23.5 23.5 v 76.5 c 0,44.97838 0.37289,76.5 0.90497,76.5 0.49774,0 2.03107,-1.92153 3.4074,-4.27006 8.26859,-14.10927 29.50886,-32.10913 48.16696,-40.81861 21.15308,-9.87413 50.24939,-14.04894 74.95246,-10.75439 18.61359,2.48243 41.10782,10.78684 56.06821,20.69925 18.30367,12.1276 34.88231,31.06081 45.29686,51.73015 l 3.0667,6.08634 -20.18178,-0.45976 c -12.44518,-0.28351 -22.86521,-0.0289 -27.18178,0.66425 l -7,1.12401 -2.83651,-3.25059 c -11.61377,-13.30919 -19.13435,-19.47462 -31.34578,-25.6975 -14.69931,-7.4907 -28.09277,-10.53121 -45.81771,-10.40127 -15.8931,0.1165 -28.33267,3.00795 -42.05311,9.77479 -37.26377,18.37828 -58.84636,61.24923 -54.47624,108.2098 4.38678,47.13957 30.09242,80.56849 71.43511,92.89784 13.08521,3.90231 39.10326,3.90231 52.18847,0 31.53286,-9.40383 53.1911,-30.14458 64.52625,-61.79279 3.72761,-10.40762 6.87952,-27.72266 6.87952,-37.79268 0,-2.17183 0.3375,-3.98321 0.75,-4.0253 0.4125,-0.0421 1.65,-0.26533 2.75,-0.49611 11.16517,-2.34247 32.81427,-0.83126 41.78172,2.91656 l 3.78172,1.58052 -0.60774,6.78777 c -1.29838,14.5016 -4.75912,32.28923 -8.44386,43.40006 -19.36577,58.39483 -68.99473,94.41436 -129.19374,93.76577 -6.22496,-0.0671 -14.0181,-0.50712 -17.3181,-0.97789 z"
       id="path358807" /><path
       style="fill:#266c00"
       d="m -241.74924,-333.33399 c 0.72187,-0.28887 1.58437,-0.25334 1.91666,0.0789 0.33229,0.33229 -0.25833,0.56864 -1.3125,0.52522 -1.16494,-0.048 -1.4019,-0.28494 -0.60416,-0.60417 z m 178.67751,-196.81688 c 1e-5,-107.25 0.11699,-150.97669 0.25994,-97.17042 0.14296,53.80626 0.14294,141.55626 -2e-5,195 -0.14297,53.44373 -0.25994,9.42042 -0.25992,-97.82958 z m -258.74001,119.76275 c 2.8875,-0.202 7.6125,-0.202 10.5,0 2.8875,0.20201 0.525,0.36728 -5.25,0.36728 -5.775,0 -8.1375,-0.16527 -5.25,-0.36728 z m -15.9375,-0.94587 c 0.72187,-0.28887 1.58437,-0.25334 1.91666,0.0789 0.33229,0.33229 -0.25833,0.56864 -1.3125,0.52522 -1.16494,-0.048 -1.4019,-0.28494 -0.60416,-0.60417 z m 41,0 c 0.72187,-0.28887 1.58437,-0.25334 1.91666,0.0789 0.33229,0.33229 -0.25833,0.56864 -1.3125,0.52522 -1.16494,-0.048 -1.4019,-0.28494 -0.60416,-0.60417 z m -43,-14 c 0.72187,-0.28887 1.58437,-0.25334 1.91666,0.0789 0.33229,0.33229 -0.25833,0.56864 -1.3125,0.52522 -1.16494,-0.048 -1.4019,-0.28494 -0.60416,-0.60417 z m -132.32249,-196.81688 c 10e-6,-107.25 0.11699,-150.97669 0.25994,-97.17042 0.14296,53.80626 0.14294,141.55626 -2e-5,195 -0.14297,53.44373 -0.25994,9.42042 -0.25992,-97.82958 z m 47.94673,168.5 c 0,-14.575 0.13979,-20.5375 0.31065,-13.25 0.17086,7.2875 0.17086,19.2125 0,26.5 -0.17086,7.2875 -0.31065,1.325 -0.31065,-13.25 z m 310.6422,-8.58334 c 0.048,-1.16494 0.28494,-1.4019 0.60417,-0.60416 0.28887,0.72187 0.25334,1.58437 -0.0789,1.91666 -0.33229,0.33229 -0.56864,-0.25833 -0.52522,-1.3125 z m 1.19342,-11.41666 c 0,-2.475 0.19502,-3.4875 0.43337,-2.25 0.23835,1.2375 0.23835,3.2625 0,4.5 -0.23835,1.2375 -0.43337,0.225 -0.43337,-2.25 z m 0,-13 c 0,-2.475 0.19502,-3.4875 0.43337,-2.25 0.23835,1.2375 0.23835,3.2625 0,4.5 -0.23835,1.2375 -0.43337,0.225 -0.43337,-2.25 z m -70.19342,-56.58334 c 0.048,-1.16494 0.28494,-1.4019 0.60417,-0.60416 0.28887,0.72187 0.25334,1.58437 -0.0789,1.91666 -0.33229,0.33229 -0.56864,-0.25833 -0.52522,-1.3125 z m -240,-6 c 0.048,-1.16494 0.28494,-1.4019 0.60417,-0.60416 0.28887,0.72187 0.25334,1.58437 -0.0789,1.91666 -0.33229,0.33229 -0.56864,-0.25833 -0.52522,-1.3125 z m -1,-7 c 0.048,-1.16494 0.28494,-1.4019 0.60417,-0.60416 0.28887,0.72187 0.25334,1.58437 -0.0789,1.91666 -0.33229,0.33229 -0.56864,-0.25833 -0.52522,-1.3125 z m -0.75887,-16.41666 c 0,-3.575 0.18149,-5.0375 0.40332,-3.25 0.22183,1.7875 0.22183,4.7125 0,6.5 -0.22183,1.7875 -0.40332,0.325 -0.40332,-3.25 z m 204.49243,-0.68312 c 0.72187,-0.28887 1.58437,-0.25334 1.91666,0.0789 0.33229,0.33229 -0.25833,0.56864 -1.3125,0.52522 -1.16494,-0.048 -1.4019,-0.28494 -0.60416,-0.60417 z m 19,0 c 0.72187,-0.28887 1.58437,-0.25334 1.91666,0.0789 0.33229,0.33229 -0.25833,0.56864 -1.3125,0.52522 -1.16494,-0.048 -1.4019,-0.28494 -0.60416,-0.60417 z m -222.73356,-14.90022 c 0.048,-1.16494 0.28494,-1.4019 0.60417,-0.60416 0.28887,0.72187 0.25334,1.58437 -0.0789,1.91666 -0.33229,0.33229 -0.56864,-0.25833 -0.52522,-1.3125 z m 209.69749,0.84984 c 2.35204,-0.21125 5.95204,-0.20827 8,0.007 2.04796,0.21488 0.12357,0.38772 -4.27643,0.38409 -4.4,-0.004 -6.07561,-0.17945 -3.72357,-0.39069 z m -208.69749,-7.84984 c 0.048,-1.16494 0.28494,-1.4019 0.60417,-0.60416 0.28887,0.72187 0.25334,1.58437 -0.0789,1.91666 -0.33229,0.33229 -0.56864,-0.25833 -0.52522,-1.3125 z m -1.60327,-144.91666 c 8e-5,-42.35 0.1234,-59.52913 0.27405,-38.17584 0.15064,21.35329 0.15058,56.00329 -1.5e-4,77 -0.15073,20.99671 -0.27399,3.52584 -0.2739,-38.82416 z m 94.30076,60.7665 c 2.35204,-0.21125 5.95204,-0.20827 8,0.007 2.04796,0.21488 0.12357,0.38772 -4.27643,0.38409 -4.4,-0.004 -6.07561,-0.17945 -3.72357,-0.39069 z m -80.77643,-1.64406 c 0,-0.20765 0.7875,-0.99515 1.75,-1.75 1.58605,-1.24387 1.62142,-1.2085 0.37755,0.37756 -1.30637,1.66574 -2.12755,2.19548 -2.12755,1.37244 z m 253,-80 c 0,-0.20765 0.7875,-0.99515 1.75,-1.75 1.58605,-1.24387 1.62142,-1.2085 0.37755,0.37756 -1.30637,1.66574 -2.12755,2.19548 -2.12755,1.37244 z m 5.5,-5.62244 c 0.99548,-1.1 2.03497,-2 2.30997,-2 0.275,0 -0.31449,0.9 -1.30997,2 -0.99549,1.1 -2.03498,2 -2.30998,2 -0.275,0 0.31449,-0.9 1.30998,-2 z m -229.62756,-89.75 c -1.24387,-1.58606 -1.2085,-1.62143 0.37756,-0.37756 1.66574,1.30637 2.19547,2.12756 1.37244,2.12756 -0.20765,0 -0.99515,-0.7875 -1.75,-1.75 z"
       id="path358806" /><path
       style="fill:#156f02"
       d="m -237.74924,-332.33399 c 0.72187,-0.28887 1.58437,-0.25334 1.91666,0.0789 0.33229,0.33229 -0.25833,0.56864 -1.3125,0.52522 -1.16494,-0.048 -1.4019,-0.28494 -0.60416,-0.60417 z m 4,0 c 0.72187,-0.28887 1.58437,-0.25334 1.91666,0.0789 0.33229,0.33229 -0.25833,0.56864 -1.3125,0.52522 -1.16494,-0.048 -1.4019,-0.28494 -0.60416,-0.60417 z m 28.9375,-0.0226 c 1.2375,-0.23835 3.2625,-0.23835 4.5,0 1.2375,0.23836 0.225,0.43337 -2.25,0.43337 -2.475,0 -3.4875,-0.19501 -2.25,-0.43337 z m -39.9375,-0.97738 c 0.72187,-0.28887 1.58437,-0.25334 1.91666,0.0789 0.33229,0.33229 -0.25833,0.56864 -1.3125,0.52522 -1.16494,-0.048 -1.4019,-0.28494 -0.60416,-0.60417 z m 50,0 c 0.72187,-0.28887 1.58437,-0.25334 1.91666,0.0789 0.33229,0.33229 -0.25833,0.56864 -1.3125,0.52522 -1.16494,-0.048 -1.4019,-0.28494 -0.60416,-0.60417 z m 5,-1 c 0.72187,-0.28887 1.58437,-0.25334 1.91666,0.0789 0.33229,0.33229 -0.25833,0.56864 -1.3125,0.52522 -1.16494,-0.048 -1.4019,-0.28494 -0.60416,-0.60417 z m 77.40587,-26.6259 c -0.17207,-20.33615 -0.48344,-25.64977 -1.46837,-25.05804 -0.71843,0.43161 -0.61211,-0.0352 0.25,-1.0977 1.35293,-1.66743 1.52731,-0.50388 1.7786,11.86783 0.15324,7.54407 0.13901,19.6521 -0.0316,26.90671 -0.17063,7.25462 -0.40851,1.57616 -0.52861,-12.6188 z m -46.21837,15.87938 c 0,-0.275 0.9,-0.98166 2,-1.57036 1.1,-0.58871 2,-0.84537 2,-0.57037 0,0.275 -0.9,0.98166 -2,1.57037 -1.1,0.5887 -2,0.84536 -2,0.57036 z m -125.55887,-2.12553 c -1.83031,-1.46638 -1.7984,-1.48719 0.55887,-0.36455 3.06103,1.45782 3.62834,1.91972 2.35779,1.91972 -0.53654,0 -1.84904,-0.69983 -2.91666,-1.55517 z m 143.05887,-9.44483 c 0.99548,-1.1 2.03497,-2 2.30997,-2 0.275,0 -0.31449,0.9 -1.30997,2 -0.99549,1.1 -2.03498,2 -2.30998,2 -0.275,0 0.31449,-0.9 1.30998,-2 z m -158.62756,-0.75 c -1.24387,-1.58606 -1.2085,-1.62143 0.37756,-0.37756 1.66574,1.30637 2.19547,2.12756 1.37244,2.12756 -0.20765,0 -0.99515,-0.7875 -1.75,-1.75 z m -5,-4 c -1.24387,-1.58606 -1.2085,-1.62143 0.37756,-0.37756 0.9625,0.75485 1.75,1.54235 1.75,1.75 0,0.82304 -0.82119,0.2933 -2.12756,-1.37244 z m 168.12756,1.43709 c 0,-0.1721 1.4625,-1.6346 3.25,-3.25 l 3.25,-2.93709 -2.9371,3.25 c -2.73778,3.02945 -3.5629,3.70965 -3.5629,2.93709 z m -177.03416,-9.43709 -5.46584,-5.75 5.75,5.46584 c 3.1625,3.00621 5.75,5.59371 5.75,5.75 0,0.74225 -0.95623,-0.12391 -6.03416,-5.46584 z m 188.03416,-1.75 c 1.86578,-1.925 3.61733,-3.5 3.89233,-3.5 0.275,0 -1.02655,1.575 -2.89233,3.5 -1.86579,1.925 -3.61734,3.5 -3.89234,3.5 -0.275,0 1.02655,-1.575 2.89234,-3.5 z m -87.25,-2.2234 c 1.7875,-0.22183 4.7125,-0.22183 6.5,0 1.7875,0.22183 0.325,0.40332 -3.25,0.40332 -3.575,0 -5.0375,-0.18149 -3.25,-0.40332 z m -10.9375,-0.95972 c 0.72187,-0.28887 1.58437,-0.25334 1.91666,0.079 0.33229,0.33229 -0.25833,0.56864 -1.3125,0.52522 -1.16494,-0.048 -1.4019,-0.28494 -0.60416,-0.60417 z m 27,0 c 0.72187,-0.28887 1.58437,-0.25334 1.91666,0.079 0.33229,0.33229 -0.25833,0.56864 -1.3125,0.52522 -1.16494,-0.048 -1.4019,-0.28494 -0.60416,-0.60417 z m -33,-1 c 0.72187,-0.28887 1.58437,-0.25334 1.91666,0.079 0.33229,0.33229 -0.25833,0.56864 -1.3125,0.52522 -1.16494,-0.048 -1.4019,-0.28494 -0.60416,-0.60417 z m 39,0 c 0.72187,-0.28887 1.58437,-0.25334 1.91666,0.079 0.33229,0.33229 -0.25833,0.56864 -1.3125,0.52522 -1.16494,-0.048 -1.4019,-0.28494 -0.60416,-0.60417 z m 69.1875,-0.69444 c 0,-0.20765 0.7875,-0.99515 1.75,-1.75 1.58605,-1.24387 1.62142,-1.2085 0.37755,0.37756 -1.30637,1.66574 -2.12755,2.19548 -2.12755,1.37244 z m -60.1875,-1.30556 c 0.72187,-0.28887 1.58437,-0.25334 1.91666,0.079 0.33229,0.33229 -0.25833,0.56864 -1.3125,0.52522 -1.16494,-0.048 -1.4019,-0.28494 -0.60416,-0.60417 z m -140.94006,-2.06688 c -1.24387,-1.58606 -1.2085,-1.62143 0.37756,-0.37756 0.9625,0.75485 1.75,1.54235 1.75,1.75 0,0.82304 -0.82119,0.2933 -2.12756,-1.37244 z m 172.62756,-14.25002 c 0.99548,-1.1 2.03497,-2 2.30997,-2 0.275,0 -0.31449,0.9 -1.30997,2 -0.99549,1.1 -2.03498,2 -2.30998,2 -0.275,0 0.31449,-0.9 1.30998,-2 z m -183.5,-1 c -0.58871,-1.1 -0.84537,-2 -0.57037,-2 0.275,0 0.98166,0.9 1.57037,2 0.5887,1.1 0.84536,2 0.57036,2 -0.275,0 -0.98166,-0.9 -1.57036,-2 z m 61.43709,-1.25 -2.93709,-3.25 3.25,2.93709 c 3.02945,2.73778 3.70965,3.56291 2.93709,3.56291 -0.1721,0 -1.6346,-1.4625 -3.25,-3.25 z m 126.56291,-1.06291 c 0,-0.1721 1.4625,-1.6346 3.25,-3.25 l 3.25,-2.93709 -2.9371,3.25 c -2.73778,3.02945 -3.5629,3.70965 -3.5629,2.93709 z m -192,-4.68709 c -0.58871,-1.1 -0.84537,-2 -0.57037,-2 0.275,0 0.98166,0.9 1.57037,2 0.5887,1.1 0.84536,2 0.57036,2 -0.275,0 -0.98166,-0.9 -1.57036,-2 z m 56.40498,-3.25 -1.90498,-2.25 2.25,1.90498 c 2.11444,1.79022 2.70524,2.59502 1.90498,2.59502 -0.18975,0 -1.20225,-1.0125 -2.25,-2.25 z m -58.78145,-1.28866 c -0.96497,-2.5147 -0.68031,-3.16356 0.49854,-1.13634 0.58369,1.00375 0.8506,2.03566 0.59313,2.29313 -0.25747,0.25747 -0.74872,-0.26309 -1.09167,-1.15679 z m 204.81372,-2.7902 c 1.54007,-2.01913 3.00236,-3.67114 3.24953,-3.67114 0.69466,0 -3.63456,5.84968 -4.91478,6.6409 -0.62418,0.38577 0.12519,-0.95062 1.66525,-2.96976 z m -151.03227,-1.92114 -1.90498,-2.25 2.25,1.90498 c 1.2375,1.04775 2.25,2.06025 2.25,2.25 0,0.80026 -0.8048,0.20946 -2.59502,-1.90498 z m -47.64332,-0.45727 c 1.24391,-0.23919 3.04391,-0.23011 4,0.0202 0.95608,0.2503 -0.0617,0.446 -2.26166,0.4349 -2.2,-0.0111 -2.98226,-0.21588 -1.73834,-0.45508 z m 31,0 c 1.24391,-0.23919 3.04391,-0.23011 4,0.0202 0.95608,0.2503 -0.0617,0.446 -2.26166,0.4349 -2.2,-0.0111 -2.98226,-0.21588 -1.73834,-0.45508 z m 10.05084,-0.97585 c 0.72187,-0.28887 1.58437,-0.25334 1.91666,0.0789 0.33229,0.33229 -0.25833,0.56864 -1.3125,0.52522 -1.16494,-0.048 -1.4019,-0.28494 -0.60416,-0.60417 z m -44.0625,-11.97917 c 0.6875,-0.27741 1.8125,-0.27741 2.5,0 0.6875,0.27742 0.125,0.50439 -1.25,0.50439 -1.375,0 -1.9375,-0.22697 -1.25,-0.50439 z m 5.0625,-0.0208 c 0.72187,-0.28887 1.58437,-0.25334 1.91666,0.0789 0.33229,0.3323 -0.25833,0.56864 -1.3125,0.52522 -1.16494,-0.048 -1.4019,-0.28494 -0.60416,-0.60416 z m 29,0 c 0.72187,-0.28887 1.58437,-0.25334 1.91666,0.0789 0.33229,0.3323 -0.25833,0.56864 -1.3125,0.52522 -1.16494,-0.048 -1.4019,-0.28494 -0.60416,-0.60416 z m 4,0 c 0.72187,-0.28887 1.58437,-0.25334 1.91666,0.0789 0.33229,0.3323 -0.25833,0.56864 -1.3125,0.52522 -1.16494,-0.048 -1.4019,-0.28494 -0.60416,-0.60416 z m 174.1875,-1.31688 c 0.5887,-1.1 1.29536,-2 1.57036,-2 0.275,0 0.0183,0.9 -0.57036,2 -0.58871,1.1 -1.29537,2 -1.57037,2 -0.275,0 -0.0183,-0.9 0.57037,-2 z m -218.1875,0.31688 c 0.72187,-0.28887 1.58437,-0.25334 1.91666,0.0789 0.33229,0.3323 -0.25833,0.56864 -1.3125,0.52522 -1.16494,-0.048 -1.4019,-0.28494 -0.60416,-0.60416 z m 50,0 c 0.72187,-0.28887 1.58437,-0.25334 1.91666,0.0789 0.33229,0.3323 -0.25833,0.56864 -1.3125,0.52522 -1.16494,-0.048 -1.4019,-0.28494 -0.60416,-0.60416 z m -55,-1 c 0.72187,-0.28887 1.58437,-0.25334 1.91666,0.0789 0.33229,0.3323 -0.25833,0.56864 -1.3125,0.52522 -1.16494,-0.048 -1.4019,-0.28494 -0.60416,-0.60416 z m -17,-5 c 0.72187,-0.28887 1.58437,-0.25334 1.91666,0.0789 0.33229,0.3323 -0.25833,0.56864 -1.3125,0.52522 -1.16494,-0.048 -1.4019,-0.28494 -0.60416,-0.60416 z m -9.37137,-3.87205 c -1.83031,-1.46638 -1.7984,-1.48719 0.55887,-0.36454 3.06103,1.45781 3.62834,1.91971 2.35779,1.91971 -0.53654,0 -1.84904,-0.69983 -2.91666,-1.55517 z m -6.93405,-3.43338 c -0.35034,-0.56686 0.0511,-0.7345 0.94098,-0.39301 1.73242,0.66479 2.04938,1.38156 0.61095,1.38156 -0.51754,0 -1.21591,-0.44485 -1.55193,-0.98855 z m -14.63464,-9.76145 c -1.24387,-1.58606 -1.2085,-1.62143 0.37756,-0.37756 0.9625,0.75485 1.75,1.54235 1.75,1.75 0,0.82304 -0.82119,0.29331 -2.12756,-1.37244 z m -5.46746,-4.5 -1.90498,-2.25 2.25,1.90499 c 2.11444,1.79021 2.70524,2.59501 1.90498,2.59501 -0.18975,0 -1.20225,-1.0125 -2.25,-2.25 z m 170.09502,-0.75 c 0.99548,-1.1 2.03497,-2 2.30997,-2 0.275,0 -0.31449,0.9 -1.30997,2 -0.99549,1.1 -2.03498,2 -2.30998,2 -0.275,0 0.31449,-0.9 1.30998,-2 z m 116.69494,-3.5 c 0.0204,-1.65 0.2445,-2.20394 0.49805,-1.23097 0.25354,0.97297 0.23687,2.32297 -0.0371,3 -0.27392,0.67703 -0.48137,-0.11903 -0.46099,-1.76903 z m -294.3225,-2.25 c -1.24387,-1.58606 -1.2085,-1.62143 0.37756,-0.37756 0.9625,0.75485 1.75,1.54235 1.75,1.75 0,0.82304 -0.82119,0.29331 -2.12756,-1.37244 z m 186.62756,-2.25 c 2.14824,-2.2 4.13089,-4 4.40589,-4 0.275,0 -1.25765,1.8 -3.40589,4 -2.14825,2.2 -4.1309,4 -4.4059,4 -0.275,0 1.25765,-1.8 3.4059,-4 z m -192.57569,-4.75 -2.42431,-2.75 2.75,2.42431 c 2.57028,2.26589 3.20858,3.07569 2.42431,3.07569 -0.17913,0 -1.41663,-1.2375 -2.75,-2.75 z m 301.27063,0.25 c 0.0204,-1.65 0.2445,-2.20394 0.49805,-1.23097 0.25354,0.97297 0.23687,2.32297 -0.0371,3 -0.27392,0.67703 -0.48137,-0.11903 -0.46099,-1.76903 z m -216.46725,0.77826 c 1.77523,-0.22091 4.92523,-0.22454 7,-0.008 2.07477,0.21648 0.62231,0.39723 -3.22769,0.40166 -3.85,0.004 -5.54754,-0.17268 -3.77231,-0.39359 z m -10.91519,-0.96138 c 0.72187,-0.28887 1.58437,-0.25334 1.91666,0.0789 0.33229,0.33229 -0.25833,0.56864 -1.3125,0.52522 -1.16494,-0.048 -1.4019,-0.28494 -0.60416,-0.60417 z m 26.9375,0.0208 c 0.6875,-0.27741 1.8125,-0.27741 2.5,0 0.6875,0.27741 0.125,0.50439 -1.25,0.50439 -1.375,0 -1.9375,-0.22698 -1.25,-0.50439 z m 98.75,-3.33772 c 0.99548,-1.1 2.03497,-2 2.30997,-2 0.275,0 -0.31449,0.9 -1.30997,2 -0.99549,1.1 -2.03498,2 -2.30998,2 -0.275,0 0.31449,-0.9 1.30998,-2 z m -139.6875,0.31689 c 0.72187,-0.28887 1.58437,-0.25335 1.91666,0.0789 0.33229,0.33229 -0.25833,0.56864 -1.3125,0.52522 -1.16494,-0.048 -1.4019,-0.28494 -0.60416,-0.60417 z m 56,0 c 0.72187,-0.28887 1.58437,-0.25335 1.91666,0.0789 0.33229,0.33229 -0.25833,0.56864 -1.3125,0.52522 -1.16494,-0.048 -1.4019,-0.28494 -0.60416,-0.60417 z m -121.94006,-5.06688 c -1.24387,-1.58606 -1.2085,-1.62143 0.37756,-0.37756 0.9625,0.75485 1.75,1.54235 1.75,1.75 0,0.82304 -0.82119,0.2933 -2.12756,-1.37244 z m 209.12756,0.37244 c 0,-0.20765 0.7875,-0.99515 1.75,-1.75 1.58605,-1.24387 1.62142,-1.2085 0.37755,0.37756 -1.30637,1.66574 -2.12755,2.19548 -2.12755,1.37244 z m -71.91667,-0.98699 c 0.22917,-0.2005 1.54167,-0.90032 2.91667,-1.55517 2.35726,-1.12264 2.38917,-1.10183 0.55887,0.36455 -1.593,1.27626 -4.84787,2.39128 -3.47554,1.19062 z m -45.31543,-3.36019 c 1.79735,-0.22256 4.49735,-0.21796 6,0.0102 1.50265,0.22817 0.0321,0.41027 -3.2679,0.40466 -3.3,-0.006 -4.52945,-0.1923 -2.7321,-0.41487 z m 216.42704,-1.77526 c 0.0204,-1.65 0.2445,-2.20394 0.49805,-1.23097 0.25354,0.97297 0.23687,2.32297 -0.0371,3 -0.27392,0.67703 -0.48137,-0.11903 -0.46099,-1.76903 z m -226.38244,0.81688 c 0.72187,-0.28887 1.58437,-0.25334 1.91666,0.0789 0.33229,0.33229 -0.25833,0.56864 -1.3125,0.52522 -1.16494,-0.048 -1.4019,-0.28494 -0.60416,-0.60417 z m 24,0 c 0.72187,-0.28887 1.58437,-0.25334 1.91666,0.0789 0.33229,0.33229 -0.25833,0.56864 -1.3125,0.52522 -1.16494,-0.048 -1.4019,-0.28494 -0.60416,-0.60417 z m -30,-1 c 0.72187,-0.28887 1.58437,-0.25334 1.91666,0.0789 0.33229,0.33229 -0.25833,0.56864 -1.3125,0.52522 -1.16494,-0.048 -1.4019,-0.28494 -0.60416,-0.60417 z m 36,0 c 0.72187,-0.28887 1.58437,-0.25334 1.91666,0.0789 0.33229,0.33229 -0.25833,0.56864 -1.3125,0.52522 -1.16494,-0.048 -1.4019,-0.28494 -0.60416,-0.60417 z m -74.85028,-3.38904 -3.46222,-3.07215 3.75,2.69084 c 3.31388,2.3779 4.39217,3.45347 3.46222,3.45347 -0.15827,0 -1.84577,-1.38247 -3.75,-3.07216 z m 177.03778,2.6946 c 0,-0.20765 0.7875,-0.99515 1.75,-1.75 1.58605,-1.24387 1.62142,-1.2085 0.37755,0.37756 -1.30637,1.66574 -2.12755,2.19548 -2.12755,1.37244 z m -63,-2 c 0,-0.20765 0.7875,-0.99515 1.75,-1.75 1.58605,-1.24387 1.62142,-1.2085 0.37755,0.37756 -1.30637,1.66574 -2.12755,2.19548 -2.12755,1.37244 z m 10.5,-9.62244 c 3.26556,-3.3 6.16239,-6 6.43739,-6 0.275,0 -2.17183,2.7 -5.43739,6 -3.26557,3.3 -6.1624,6 -6.4374,6 -0.275,0 2.17183,-2.7 5.4374,-6 z m -135.53416,-0.75 -5.46584,-5.75 5.75,5.46584 c 5.34193,5.07793 6.20809,6.03416 5.46584,6.03416 -0.15629,0 -2.74379,-2.5875 -5.75,-5.75 z m 88.2291,1.25 c 0.0204,-1.65 0.2445,-2.20394 0.49805,-1.23097 0.25354,0.97297 0.23687,2.32297 -0.0371,3 -0.27392,0.67703 -0.48137,-0.11903 -0.46099,-1.76903 z m 193.03706,-2.5 c 0,-1.925 0.20579,-2.7125 0.45732,-1.75 0.25153,0.9625 0.25153,2.5375 0,3.5 -0.25153,0.9625 -0.45732,0.175 -0.45732,-1.75 z m -84.15172,-1 c 1.45782,-3.06104 1.91972,-3.62834 1.91972,-2.3578 0,0.53655 -0.69983,1.84905 -1.55517,2.91667 -1.46638,1.8303 -1.48719,1.79839 -0.36455,-0.55887 z m -157.88534,-1.5 c 0.0204,-1.65 0.2445,-2.20394 0.49805,-1.23097 0.25354,0.97297 0.23687,2.32297 -0.0371,3 -0.27392,0.67703 -0.48137,-0.11903 -0.46099,-1.76903 z m -46.3225,-4.25 c -1.24387,-1.58606 -1.2085,-1.62143 0.37756,-0.37756 1.66574,1.30637 2.19547,2.12756 1.37244,2.12756 -0.20765,0 -0.99515,-0.7875 -1.75,-1.75 z m 96.2065,0.16666 c 0.048,-1.16494 0.28494,-1.4019 0.60417,-0.60416 0.28887,0.72187 0.25334,1.58437 -0.0789,1.91666 -0.33229,0.33229 -0.56864,-0.25833 -0.52522,-1.3125 z m 52.92106,1.20578 c 0,-0.20765 0.7875,-0.99516 1.75,-1.75 1.58605,-1.24387 1.62142,-1.2085 0.37755,0.37756 -1.30637,1.66574 -2.12755,2.19548 -2.12755,1.37244 z m 138.15789,-3.62244 c 0,-1.375 0.22697,-1.9375 0.50439,-1.25 0.27741,0.6875 0.27741,1.8125 0,2.5 -0.27742,0.6875 -0.50439,0.125 -0.50439,-1.25 z m -239.92589,-4 c 0,-1.925 0.20579,-2.7125 0.45732,-1.75 0.25153,0.9625 0.25153,2.5375 0,3.5 -0.25153,0.9625 -0.45732,0.175 -0.45732,-1.75 z m 49.84694,0.41666 c 0.048,-1.16494 0.28494,-1.4019 0.60417,-0.60416 0.28887,0.72187 0.25334,1.58437 -0.0789,1.91666 -0.33229,0.33229 -0.56864,-0.25833 -0.52522,-1.3125 z m -103.07894,-2.41666 c -0.58871,-1.1 -0.84537,-2 -0.57037,-2 0.275,0 0.98166,0.9 1.57037,2 0.5887,1.1 0.84536,2 0.57036,2 -0.275,0 -0.98166,-0.9 -1.57036,-2 z m 54.07894,-5.58334 c 0.048,-1.16494 0.28494,-1.4019 0.60417,-0.60416 0.28887,0.72187 0.25334,1.58437 -0.0789,1.91666 -0.33229,0.33229 -0.56864,-0.25833 -0.52522,-1.3125 z m 51,0 c 0.048,-1.16494 0.28494,-1.4019 0.60417,-0.60416 0.28887,0.72187 0.25334,1.58437 -0.0789,1.91666 -0.33229,0.33229 -0.56864,-0.25833 -0.52522,-1.3125 z m 1,-4 c 0.048,-1.16494 0.28494,-1.4019 0.60417,-0.60416 0.28887,0.72187 0.25334,1.58437 -0.0789,1.91666 -0.33229,0.33229 -0.56864,-0.25833 -0.52522,-1.3125 z m 117,-12 c 0.048,-1.16494 0.28494,-1.4019 0.60417,-0.60416 0.28887,0.72187 0.25334,1.58437 -0.0789,1.91666 -0.33229,0.33229 -0.56864,-0.25833 -0.52522,-1.3125 z m 58.92106,-5.41666 c -0.58871,-1.1 -0.84537,-2 -0.57037,-2 0.275,0 0.98166,0.9 1.57037,2 0.5887,1.1 0.84536,2 0.57036,2 -0.275,0 -0.98166,-0.9 -1.57036,-2 z m -56.92106,-3.58334 c 0.048,-1.16494 0.28494,-1.4019 0.60417,-0.60416 0.28887,0.72187 0.25334,1.58437 -0.0789,1.91666 -0.33229,0.33229 -0.56864,-0.25833 -0.52522,-1.3125 z m 52.43234,-4.03979 c -0.94531,-1.44272 -1.22448,-2.31765 -0.62039,-1.9443 1.1544,0.71345 3.48268,4.56743 2.7593,4.56743 -0.2311,0 -1.19361,-1.18041 -2.13891,-2.62313 z m -291.35339,-1.37687 c 0,-1.375 0.22697,-1.9375 0.50439,-1.25 0.27741,0.6875 0.27741,1.8125 0,2.5 -0.27742,0.6875 -0.50439,0.125 -0.50439,-1.25 z m 189.92105,-1.58334 c 0.048,-1.16494 0.28494,-1.4019 0.60417,-0.60416 0.28887,0.72187 0.25334,1.58437 -0.0789,1.91666 -0.33229,0.33229 -0.56864,-0.25833 -0.52522,-1.3125 z m 50.15306,-1.41666 c 0,-1.925 0.20579,-2.7125 0.45732,-1.75 0.25153,0.9625 0.25153,2.5375 0,3.5 -0.25153,0.9625 -0.45732,0.175 -0.45732,-1.75 z m -241.15306,-3.58334 c 0.048,-1.16494 0.28494,-1.4019 0.60417,-0.60416 0.28887,0.72187 0.25334,1.58437 -0.0789,1.91666 -0.33229,0.33229 -0.56864,-0.25833 -0.52522,-1.3125 z m 139.42106,-1.41666 c 0.99548,-1.1 2.03497,-2 2.30997,-2 0.275,0 -0.31449,0.9 -1.30997,2 -0.99549,1.1 -2.03498,2 -2.30998,2 -0.275,0 0.31449,-0.9 1.30998,-2 z m 52.65789,0 c 0,-1.375 0.22697,-1.9375 0.50439,-1.25 0.27741,0.6875 0.27741,1.8125 0,2.5 -0.27742,0.6875 -0.50439,0.125 -0.50439,-1.25 z m 93.71455,0.25 c -1.24387,-1.58606 -1.2085,-1.62143 0.37756,-0.37756 0.9625,0.75484 1.75,1.54235 1.75,1.75 0,0.82303 -0.82119,0.2933 -2.12756,-1.37244 z m -203.87244,-0.633 c 0,-1.07318 2.97538,-6.617 3.55136,-6.617 0.275,0 -0.24379,1.4625 -1.15286,3.25 -1.85623,3.6499 -2.3985,4.41113 -2.3985,3.367 z m 63.5,-6.617 c 2.14824,-2.2 4.13089,-4 4.40589,-4 0.275,0 -1.25765,1.8 -3.40589,4 -2.14825,2.2 -4.1309,4 -4.4059,4 -0.275,0 1.25765,-1.8 3.4059,-4 z m 96.732,1 c 0,-1.925 0.20579,-2.7125 0.45732,-1.75 0.25153,0.9625 0.25153,2.5375 0,3.5 -0.25153,0.9625 -0.45732,0.175 -0.45732,-1.75 z m -243,-1 c 0,-1.925 0.20579,-2.7125 0.45732,-1.75 0.25153,0.9625 0.25153,2.5375 0,3.5 -0.25153,0.9625 -0.45732,0.175 -0.45732,-1.75 z m 281.17298,0.75 -1.90498,-2.25 2.25,1.90498 c 1.2375,1.04775 2.25,2.06025 2.25,2.25 0,0.80026 -0.8048,0.20946 -2.59502,-1.90498 z m -87.13262,-4.75 c 0,-2.475 0.19502,-3.4875 0.43337,-2.25 0.23835,1.2375 0.23835,3.2625 0,4.5 -0.23835,1.2375 -0.43337,0.225 -0.43337,-2.25 z m -40.77236,-2 c 0.99548,-1.1 2.03497,-2 2.30997,-2 0.275,0 -0.31449,0.9 -1.30997,2 -0.99549,1.1 -2.03498,2 -2.30998,2 -0.275,0 0.31449,-0.9 1.30998,-2 z m 120.37244,0.25 c -1.24387,-1.58606 -1.2085,-1.62143 0.37756,-0.37756 1.66574,1.30637 2.19547,2.12756 1.37244,2.12756 -0.20765,0 -0.99515,-0.7875 -1.75,-1.75 z m -182.87244,-2.25 c 0.5887,-1.1 1.29536,-2 1.57036,-2 0.275,0 0.0183,0.9 -0.57036,2 -0.58871,1.1 -1.29537,2 -1.57037,2 -0.275,0 -0.0183,-0.9 0.57037,-2 z m 151,0 c -0.9013,-0.58246 -1.02464,-0.97549 -0.30902,-0.98469 0.65504,-0.008 1.4691,0.43469 1.80902,0.98469 0.7673,1.24152 0.42112,1.24152 -1.5,0 z m 27.87244,-0.75 c -1.24387,-1.58606 -1.2085,-1.62143 0.37756,-0.37756 0.9625,0.75484 1.75,1.54235 1.75,1.75 0,0.82303 -0.82119,0.2933 -2.12756,-1.37244 z m -112.87244,0.37244 c 0,-0.20765 0.7875,-0.99516 1.75,-1.75 1.58605,-1.24387 1.62142,-1.2085 0.37755,0.37756 -1.30637,1.66574 -2.12755,2.19547 -2.12755,1.37244 z m -64,-3 c 0,-0.20765 0.7875,-0.99516 1.75,-1.75 1.58605,-1.24387 1.62142,-1.2085 0.37755,0.37756 -1.30637,1.66574 -2.12755,2.19547 -2.12755,1.37244 z m 137.8125,-0.30556 c 0.72187,-0.28887 1.58437,-0.25334 1.91666,0.0789 0.33229,0.33229 -0.25833,0.56864 -1.3125,0.52522 -1.16494,-0.048 -1.4019,-0.28494 -0.60416,-0.60417 z m -30,-1 c 0.72187,-0.28887 1.58437,-0.25334 1.91666,0.0789 0.33229,0.33229 -0.25833,0.56864 -1.3125,0.52522 -1.16494,-0.048 -1.4019,-0.28494 -0.60416,-0.60417 z m 25,0 c 0.72187,-0.28887 1.58437,-0.25334 1.91666,0.0789 0.33229,0.33229 -0.25833,0.56864 -1.3125,0.52522 -1.16494,-0.048 -1.4019,-0.28494 -0.60416,-0.60417 z m -15.5625,-1.04535 c 2.0625,-0.21575 5.4375,-0.21575 7.5,0 2.0625,0.21574 0.375,0.39226 -3.75,0.39226 -4.125,0 -5.8125,-0.17652 -3.75,-0.39226 z m 50.19113,-0.8267 c -1.86403,-1.49339 -1.85176,-1.51186 0.30887,-0.46482 1.2375,0.5997 2.25,1.29952 2.25,1.55517 0,0.76522 -0.51861,0.54424 -2.55887,-1.09035 z m 50.31058,-47.19458 c 0.13845,-26.81264 0.37099,-60.90025 0.51676,-75.75025 0.14577,-14.85 0.36999,7.0875 0.49828,48.75 0.12829,41.6625 -0.10425,75.75011 -0.51675,75.75025 -0.4125,1.3e-4 -0.63673,-21.93737 -0.49829,-48.75 z m -214.75171,46.37219 c 0,-0.20765 0.7875,-0.99516 1.75,-1.75 1.58605,-1.24387 1.62142,-1.2085 0.37755,0.37756 -1.30637,1.66574 -2.12755,2.19547 -2.12755,1.37244 z m 4.5,-5.62244 c 0.99548,-1.1 2.03497,-2 2.30997,-2 0.275,0 -0.31449,0.9 -1.30997,2 -0.99549,1.1 -2.03498,2 -2.30998,2 -0.275,0 0.31449,-0.9 1.30998,-2 z m -100.268,-2 c 0,-1.925 0.20579,-2.7125 0.45732,-1.75 0.25153,0.9625 0.25153,2.5375 0,3.5 -0.25153,0.9625 -0.45732,0.175 -0.45732,-1.75 z m 303.64044,0.25 c -1.24387,-1.58606 -1.2085,-1.62143 0.37756,-0.37756 1.66574,1.30637 2.19547,2.12756 1.37244,2.12756 -0.20765,0 -0.99515,-0.7875 -1.75,-1.75 z m -104.11078,-2.95726 c 1.24391,-0.2392 3.04391,-0.23012 4,0.0202 0.95608,0.25029 -0.0617,0.44599 -2.26166,0.43489 -2.2,-0.0111 -2.98226,-0.21588 -1.73834,-0.45507 z m 25,0 c 1.24391,-0.2392 3.04391,-0.23012 4,0.0202 0.95608,0.25029 -0.0617,0.44599 -2.26166,0.43489 -2.2,-0.0111 -2.98226,-0.21588 -1.73834,-0.45507 z m -115.80346,-4.54274 c 2.45202,-2.6125 4.58952,-4.75 4.75,-4.75 0.75089,0 -0.043,0.89782 -4.4582,5.04179 l -4.75,4.45821 z m 187.00764,-1.5 -5.46584,-5.75 5.75,5.46584 c 3.1625,3.00621 5.75,5.59371 5.75,5.75 0,0.74225 -0.95623,-0.12391 -6.03416,-5.46584 z m -294.8869,0.16666 c 0.048,-1.16494 0.28494,-1.4019 0.60417,-0.60416 0.28887,0.72187 0.25334,1.58437 -0.0789,1.91666 -0.33229,0.33229 -0.56864,-0.25833 -0.52522,-1.3125 z m 1.07895,-6.41666 c 0,-1.375 0.22697,-1.9375 0.50439,-1.25 0.27741,0.6875 0.27741,1.8125 0,2.5 -0.27742,0.6875 -0.50439,0.125 -0.50439,-1.25 z m 115.84211,-0.5 c 1.29174,-1.375 2.57362,-2.5 2.84862,-2.5 0.275,0 -0.55688,1.125 -1.84862,2.5 -1.29175,1.375 -2.57363,2.5 -2.84863,2.5 -0.275,0 0.55688,-1.125 1.84863,-2.5 z m 168.40498,-1.75 -1.90498,-2.25 2.25,1.90498 c 2.11444,1.79022 2.70524,2.59502 1.90498,2.59502 -0.18975,0 -1.20225,-1.0125 -2.25,-2.25 z m -161.40498,-3.12756 c 0,-0.20765 0.7875,-0.99515 1.75,-1.75 1.58605,-1.24387 1.62142,-1.2085 0.37755,0.37756 -1.30637,1.66574 -2.12755,2.19548 -2.12755,1.37244 z m 23,-13.62244 c 0.825,-0.53316 1.95,-0.96938 2.5,-0.96938 0.55,0 0.325,0.43622 -0.5,0.96938 -0.825,0.53315 -1.95,0.96937 -2.5,0.96937 -0.55,0 -0.325,-0.43622 0.5,-0.96937 z m 18.8125,-6.68312 c 0.72187,-0.28887 1.58437,-0.25334 1.91666,0.0789 0.33229,0.33229 -0.25833,0.56864 -1.3125,0.52522 -1.16494,-0.048 -1.4019,-0.28494 -0.60416,-0.60417 z m 73,0 c 0.72187,-0.28887 1.58437,-0.25334 1.91666,0.0789 0.33229,0.33229 -0.25833,0.56864 -1.3125,0.52522 -1.16494,-0.048 -1.4019,-0.28494 -0.60416,-0.60417 z m -69,-1 c 0.72187,-0.28887 1.58437,-0.25334 1.91666,0.0789 0.33229,0.33229 -0.25833,0.56864 -1.3125,0.52522 -1.16494,-0.048 -1.4019,-0.28494 -0.60416,-0.60417 z m 17.45653,-3.00987 c 0.97297,-0.25355 2.32297,-0.23687 3,0.0371 0.67703,0.27392 -0.11903,0.48137 -1.76903,0.46099 -1.65,-0.0204 -2.20394,-0.2445 -1.23097,-0.49804 z m 30.48097,0.0307 c 0.6875,-0.27742 1.8125,-0.27742 2.5,0 0.6875,0.27741 0.125,0.50438 -1.25,0.50438 -1.375,0 -1.9375,-0.22697 -1.25,-0.50438 z m -17,-1.06112 c 1.7875,-0.22183 4.7125,-0.22183 6.5,0 1.7875,0.22183 0.325,0.40332 -3.25,0.40332 -3.575,0 -5.0375,-0.18149 -3.25,-0.40332 z m -186.75,-3.2766 c 0.5887,-1.1 1.29536,-2 1.57036,-2 0.275,0 0.0183,0.9 -0.57036,2 -0.58871,1.1 -1.29537,2 -1.57037,2 -0.275,0 -0.0183,-0.9 0.57037,-2 z m 158.40498,-9.25 -1.90498,-2.25 2.25,1.90498 c 1.2375,1.04775 2.25,2.06025 2.25,2.25 0,0.80026 -0.8048,0.20946 -2.59502,-1.90498 z m 55.40752,1.56688 c 0.72187,-0.28887 1.58437,-0.25334 1.91666,0.0789 0.33229,0.33229 -0.25833,0.56864 -1.3125,0.52522 -1.16494,-0.048 -1.4019,-0.28494 -0.60416,-0.60417 z m -42.0625,-0.97916 c 0.6875,-0.27742 1.8125,-0.27742 2.5,0 0.6875,0.27741 0.125,0.50438 -1.25,0.50438 -1.375,0 -1.9375,-0.22697 -1.25,-0.50438 z m 33,0 c 0.6875,-0.27742 1.8125,-0.27742 2.5,0 0.6875,0.27741 0.125,0.50438 -1.25,0.50438 -1.375,0 -1.9375,-0.22697 -1.25,-0.50438 z m -50.82569,-6.08772 -2.42431,-2.75 2.75,2.42431 c 2.57028,2.26589 3.20858,3.07569 2.42431,3.07569 -0.17913,0 -1.41663,-1.2375 -2.75,-2.75 z m -138.92431,-4.75 c 1.86578,-1.925 3.61733,-3.5 3.89233,-3.5 0.275,0 -1.02655,1.575 -2.89233,3.5 -1.86579,1.925 -3.61734,3.5 -3.89234,3.5 -0.275,0 1.02655,-1.575 2.89234,-3.5 z m 130.43709,-3.75 -2.93709,-3.25 3.25,2.93709 c 3.02945,2.73778 3.70965,3.56291 2.93709,3.56291 -0.1721,0 -1.6346,-1.4625 -3.25,-3.25 z m -124.43709,-1.12756 c 0,-0.20765 0.7875,-0.99515 1.75,-1.75 1.58605,-1.24387 1.62142,-1.2085 0.37755,0.37756 -1.30637,1.66574 -2.12755,2.19548 -2.12755,1.37244 z m 113.44113,-7.17761 c -1.86403,-1.49339 -1.85176,-1.51186 0.30887,-0.46482 1.2375,0.5997 2.25,1.29952 2.25,1.55517 0,0.76522 -0.51861,0.54424 -2.55887,-1.09035 z m 66.43131,-2.19483 c -1.24387,-1.58606 -1.2085,-1.62143 0.37756,-0.37756 1.66574,1.30637 2.19547,2.12756 1.37244,2.12756 -0.20765,0 -0.99515,-0.7875 -1.75,-1.75 z m -4.91522,-6.5 c -1.85763,-2.3375 -2.58693,-3.61497 -1.62068,-2.83882 1.81997,1.46191 6.10548,7.08882 5.39891,7.08882 -0.2204,0 -1.9206,-1.9125 -3.77823,-4.25 z m -200.95722,-5.25 c 1.29174,-1.375 2.57362,-2.5 2.84862,-2.5 0.275,0 -0.55688,1.125 -1.84862,2.5 -1.29175,1.375 -2.57363,2.5 -2.84863,2.5 -0.275,0 0.55688,-1.125 1.84863,-2.5 z m 73.76166,-0.20726 c 1.24391,-0.2392 3.04391,-0.23012 4,0.0202 0.95608,0.25029 -0.0617,0.44599 -2.26166,0.43489 -2.2,-0.0111 -2.98226,-0.21588 -1.73834,-0.45507 z m 23.50737,0.0143 c 0.97297,-0.25355 2.32297,-0.23687 3,0.0371 0.67703,0.27392 -0.11903,0.48137 -1.76903,0.46099 -1.65,-0.0204 -2.20394,-0.2445 -1.23097,-0.49804 z m 96.13595,-3.55701 -1.90498,-2.25 2.25,1.90498 c 1.2375,1.04775 2.25,2.06025 2.25,2.25 0,0.80026 -0.8048,0.20946 -2.59502,-1.90498 z m -183.40498,-6.06291 c 0,-0.1721 1.4625,-1.6346 3.25,-3.25 l 3.25,-2.93709 -2.9371,3.25 c -2.73778,3.02945 -3.5629,3.70965 -3.5629,2.93709 z m 173.92431,-2.43709 -2.42431,-2.75 2.75,2.42431 c 2.57028,2.26589 3.20858,3.07569 2.42431,3.07569 -0.17913,0 -1.41663,-1.2375 -2.75,-2.75 z m -5.05187,-4 c -1.24387,-1.58606 -1.2085,-1.62143 0.37756,-0.37756 1.66574,1.30637 2.19547,2.12756 1.37244,2.12756 -0.20765,0 -0.99515,-0.7875 -1.75,-1.75 z m -161.87244,0.37244 c 0,-0.20765 0.7875,-0.99515 1.75,-1.75 1.58605,-1.24387 1.62142,-1.2085 0.37755,0.37756 -1.30637,1.66574 -2.12755,2.19548 -2.12755,1.37244 z m 157.87244,-3.37244 c -1.24387,-1.58606 -1.2085,-1.62143 0.37756,-0.37756 0.9625,0.75485 1.75,1.54235 1.75,1.75 0,0.82304 -0.82119,0.2933 -2.12756,-1.37244 z m -149.87244,-2.67964 c 0,-0.275 0.9,-0.98166 2,-1.57036 1.1,-0.58871 2,-0.84537 2,-0.57037 0,0.275 -0.9,0.98166 -2,1.57037 -1.1,0.5887 -2,0.84536 -2,0.57036 z m 127,-9.57036 c -0.825,-0.53316 -1.05,-0.96938 -0.5,-0.96938 0.55,0 1.675,0.43622 2.5,0.96938 0.825,0.53315 1.05,0.96937 0.5,0.96937 -0.55,0 -1.675,-0.43622 -2.5,-0.96937 z m -92.1875,-6.68312 c 0.72187,-0.28887 1.58437,-0.25334 1.91666,0.0789 0.33229,0.33229 -0.25833,0.56864 -1.3125,0.52522 -1.16494,-0.048 -1.4019,-0.28494 -0.60416,-0.60417 z m 74,0 c 0.72187,-0.28887 1.58437,-0.25334 1.91666,0.0789 0.33229,0.33229 -0.25833,0.56864 -1.3125,0.52522 -1.16494,-0.048 -1.4019,-0.28494 -0.60416,-0.60417 z m -60,-3 c 0.72187,-0.28887 1.58437,-0.25334 1.91666,0.0789 0.33229,0.33229 -0.25833,0.56864 -1.3125,0.52522 -1.16494,-0.048 -1.4019,-0.28494 -0.60416,-0.60417 z m 46,0 c 0.72187,-0.28887 1.58437,-0.25334 1.91666,0.0789 0.33229,0.33229 -0.25833,0.56864 -1.3125,0.52522 -1.16494,-0.048 -1.4019,-0.28494 -0.60416,-0.60417 z m -39.0625,-0.97916 c 0.6875,-0.27742 1.8125,-0.27742 2.5,0 0.6875,0.27741 0.125,0.50438 -1.25,0.50438 -1.375,0 -1.9375,-0.22697 -1.25,-0.50438 z m 31,0 c 0.6875,-0.27742 1.8125,-0.27742 2.5,0 0.6875,0.27741 0.125,0.50438 -1.25,0.50438 -1.375,0 -1.9375,-0.22697 -1.25,-0.50438 z m -18,-1.06112 c 1.7875,-0.22183 4.7125,-0.22183 6.5,0 1.7875,0.22183 0.325,0.40332 -3.25,0.40332 -3.575,0 -5.0375,-0.18149 -3.25,-0.40332 z"
       id="path358805" /><path
       style="fill:#032c03"
       d="m -250.74924,-275.33399 c 0.72187,-0.28887 1.58437,-0.25334 1.91666,0.0789 0.33229,0.33229 -0.25833,0.56864 -1.3125,0.52522 -1.16494,-0.048 -1.4019,-0.28494 -0.60416,-0.60417 z m 86,-5 c 0.72187,-0.28887 1.58437,-0.25334 1.91666,0.0789 0.33229,0.33229 -0.25833,0.56864 -1.3125,0.52522 -1.16494,-0.048 -1.4019,-0.28494 -0.60416,-0.60417 z m 34,0 c 0.72187,-0.28887 1.58437,-0.25334 1.91666,0.0789 0.33229,0.33229 -0.25833,0.56864 -1.3125,0.52522 -1.16494,-0.048 -1.4019,-0.28494 -0.60416,-0.60417 z m 85,0 c 0.72187,-0.28887 1.58437,-0.25334 1.91666,0.0789 0.33229,0.33229 -0.25833,0.56864 -1.3125,0.52522 -1.16494,-0.048 -1.4019,-0.28494 -0.60416,-0.60417 z m -115,-1 c 0.72187,-0.28887 1.58437,-0.25334 1.91666,0.0789 0.33229,0.33229 -0.25833,0.56864 -1.3125,0.52522 -1.16494,-0.048 -1.4019,-0.28494 -0.60416,-0.60417 z m 150.21812,-30.81688 c 0,-0.55 0.43622,-1.675 0.96938,-2.5 0.53315,-0.825 0.96937,-1.05 0.96937,-0.5 0,0.55 -0.43622,1.675 -0.96937,2.5 -0.53316,0.825 -0.96938,1.05 -0.96938,0.5 z m -331.15818,-3.25 c -1.24387,-1.58606 -1.2085,-1.62143 0.37756,-0.37756 1.66574,1.30637 2.19547,2.12756 1.37244,2.12756 -0.20765,0 -0.99515,-0.7875 -1.75,-1.75 z m -13.39329,-12.5 -8.97915,-9.25 9.25,8.97915 c 8.59119,8.33963 9.7052,9.52085 8.97915,9.52085 -0.14897,0 -4.31147,-4.1625 -9.25,-9.25 z m 128.27085,-3.49399 c 4.5375,-0.18529 11.9625,-0.18529 16.5,0 4.5375,0.18529 0.825,0.3369 -8.25,0.3369 -9.075,0 -12.7875,-0.15161 -8.25,-0.3369 z m -13.9375,-0.93913 c 0.72187,-0.28887 1.58437,-0.25334 1.91666,0.0789 0.33229,0.33229 -0.25833,0.56864 -1.3125,0.52522 -1.16494,-0.048 -1.4019,-0.28494 -0.60416,-0.60417 z m 43,0 c 0.72187,-0.28887 1.58437,-0.25334 1.91666,0.0789 0.33229,0.33229 -0.25833,0.56864 -1.3125,0.52522 -1.16494,-0.048 -1.4019,-0.28494 -0.60416,-0.60417 z m 21.6875,-5.31688 c 1.1,-0.47269 2.675,-0.85943 3.5,-0.85943 0.94547,0 0.76063,0.31771 -0.5,0.85943 -1.1,0.47268 -2.675,0.85943 -3.5,0.85943 -0.94548,0 -0.76064,-0.31772 0.5,-0.85943 z m -191.62756,-3.75 c -1.24387,-1.58606 -1.2085,-1.62143 0.37756,-0.37756 0.9625,0.75485 1.75,1.54235 1.75,1.75 0,0.82304 -0.82119,0.2933 -2.12756,-1.37244 z m 88.12756,-2.75 c -1.375,-0.78602 -2.05,-1.42913 -1.5,-1.42913 0.55,0 2.125,0.64311 3.5,1.42913 1.375,0.78602 2.05,1.42913 1.5,1.42913 -0.55,0 -2.125,-0.64311 -3.5,-1.42913 z m 140.5,-13.5 c 0.99548,-1.1 2.03497,-2 2.30997,-2 0.275,0 -0.31449,0.9 -1.30997,2 -0.99549,1.1 -2.03498,2 -2.30998,2 -0.275,0 0.31449,-0.9 1.30998,-2 z m -165.08339,-2.57226 -3.91661,-3.57225 4.25,3.23962 c 3.88344,2.9602 4.83096,3.90489 3.91661,3.90489 -0.18337,0 -2.09587,-1.60752 -4.25,-3.57226 z m 174.58339,-5.92774 c 3.54322,-3.575 6.66722,-6.5 6.94222,-6.5 0.275,0 -2.399,2.925 -5.94222,6.5 -3.54323,3.575 -6.66723,6.5 -6.94223,6.5 -0.275,0 2.399,-2.925 5.94223,-6.5 z m -183.12756,-1.25 c -1.24387,-1.58606 -1.2085,-1.62143 0.37756,-0.37756 1.66574,1.30637 2.19547,2.12756 1.37244,2.12756 -0.20765,0 -0.99515,-0.7875 -1.75,-1.75 z m -177.37244,-5.25 c -2.54823,-1.09501 0.0808,-1.09501 3.5,0 2.00973,0.64362 2.10778,0.8064 0.5,0.83003 -1.1,0.0162 -2.9,-0.35735 -4,-0.83003 z m 81,0 c 1.1,-0.47269 2.675,-0.85943 3.5,-0.85943 0.94547,0 0.76063,0.31771 -0.5,0.85943 -1.1,0.47268 -2.675,0.85943 -3.5,0.85943 -0.94548,0 -0.76064,-0.31772 0.5,-0.85943 z m 88.37244,-3.75 c -1.24387,-1.58606 -1.2085,-1.62143 0.37756,-0.37756 0.9625,0.75485 1.75,1.54235 1.75,1.75 0,0.82304 -0.82119,0.2933 -2.12756,-1.37244 z m 199.12756,1.37244 c 0,-0.20765 0.7875,-0.99515 1.75,-1.75 1.58605,-1.24387 1.62142,-1.2085 0.37755,0.37756 -1.30637,1.66574 -2.12755,2.19548 -2.12755,1.37244 z m -270.5,-3.62244 c -1.63041,-0.70061 -1.68752,-0.87242 -0.30902,-0.92972 0.93004,-0.0387 1.9691,0.37972 2.30902,0.92972 0.71066,1.14988 0.67591,1.14988 -2,0 z m 149,-0.46389 c -3.86206,-1.76841 -2.0657,-1.79436 2.5,-0.0361 1.925,0.74131 2.825,1.36178 2,1.37881 -0.825,0.017 -2.85,-0.58718 -4.5,-1.3427 z m 62.3125,0.78077 c 0.72187,-0.28887 1.58437,-0.25334 1.91666,0.079 0.33229,0.33229 -0.25833,0.56864 -1.3125,0.52522 -1.16494,-0.048 -1.4019,-0.28494 -0.60416,-0.60417 z m 4.1875,-1.31688 c 0.825,-0.53316 1.95,-0.96938 2.5,-0.96938 0.55,0 0.325,0.43622 -0.5,0.96938 -0.825,0.53315 -1.95,0.96937 -2.5,0.96937 -0.55,0 -0.325,-0.43622 0.5,-0.96937 z m 59.51128,-1.37688 c 0.9453,-1.44272 1.90781,-2.62312 2.13891,-2.62312 0.72338,0 -1.6049,3.85397 -2.7593,4.56743 -0.60409,0.37335 -0.32492,-0.50159 0.62039,-1.94431 z m -208.70419,-1.37312 c -1.7619,-2.0516 -3.08309,-4.25 -2.55417,-4.25 0.20403,0 1.36906,1.35 2.58895,3 2.41034,3.26014 2.38777,4.07089 -0.0348,1.25 z m 68.94291,-2.82198 c -3.73845,-2.02814 -3.51089,-2.87285 0.25,-0.92802 1.65,0.85324 3,1.7648 3,2.02568 0,0.64349 -0.10745,0.6072 -3.25,-1.09766 z m 91.25,1.12334 c 0,-0.275 1.35,-1.19812 3,-2.05136 1.65,-0.85325 3,-1.32636 3,-1.05136 0,0.275 -1.35,1.19811 -3,2.05136 -1.65,0.85324 -3,1.32636 -3,1.05136 z m -100.12756,-7.30136 c -1.24387,-1.58606 -1.2085,-1.62143 0.37756,-0.37756 1.66574,1.30637 2.19547,2.12756 1.37244,2.12756 -0.20765,0 -0.99515,-0.7875 -1.75,-1.75 z m 113.12756,-0.62756 c 0,-0.20765 0.7875,-0.99516 1.75,-1.75 1.58605,-1.24387 1.62142,-1.2085 0.37755,0.37756 -1.30637,1.66574 -2.12755,2.19548 -2.12755,1.37244 z m 9.5,-8.62244 c 2.70864,-2.75 5.14981,-5 5.42481,-5 0.275,0 -1.71617,2.25 -4.42481,5 -2.70865,2.75 -5.14982,5 -5.42482,5 -0.275,0 1.71617,-2.25 4.42482,-5 z m -134.09502,-0.25 -1.90498,-2.25 2.25,1.90498 c 1.2375,1.04775 2.25,2.06025 2.25,2.25 0,0.80026 -0.8048,0.20946 -2.59502,-1.90498 z m -4.48067,-5.5 -2.42431,-2.75 2.75,2.42431 c 2.57028,2.26589 3.20858,3.07569 2.42431,3.07569 -0.17913,0 -1.41663,-1.2375 -2.75,-2.75 z m -60.30078,-2.78866 c -0.34294,-0.89371 -0.59501,-2.15061 -0.56015,-2.79313 0.0349,-0.64252 0.49453,-0.0904 1.02148,1.22697 0.52696,1.31735 0.77903,2.57426 0.56016,2.79313 -0.21887,0.21887 -0.67854,-0.33327 -1.02149,-1.22697 z m 14.62647,-2.15067 c 0.9625,-0.25153 2.5375,-0.25153 3.5,0 0.9625,0.25153 0.175,0.45732 -1.75,0.45732 -1.925,0 -2.7125,-0.20579 -1.75,-0.45732 z m 18,0 c 0.9625,-0.25153 2.5375,-0.25153 3.5,0 0.9625,0.25153 0.175,0.45732 -1.75,0.45732 -1.925,0 -2.7125,-0.20579 -1.75,-0.45732 z m 21.75,-0.89398 c -1.68136,-0.93296 -1.96705,-1.39204 -0.87245,-1.40195 0.89516,-0.008 2.18776,0.66026 2.87245,1.48526 1.46027,1.75952 1.30981,1.75325 -2,-0.0833 z m -51.1875,-0.0998 c 0.72187,-0.28887 1.58437,-0.25334 1.91666,0.0789 0.33229,0.33229 -0.25833,0.56864 -1.3125,0.52522 -1.16494,-0.048 -1.4019,-0.28494 -0.60416,-0.60417 z m 43,0 c 0.72187,-0.28887 1.58437,-0.25334 1.91666,0.0789 0.33229,0.33229 -0.25833,0.56864 -1.3125,0.52522 -1.16494,-0.048 -1.4019,-0.28494 -0.60416,-0.60417 z m 166.1875,-5.31689 c 0.5887,-1.1 1.29536,-2 1.57036,-2 0.275,0 0.0183,0.9 -0.57036,2 -0.58871,1.1 -1.29537,2 -1.57037,2 -0.275,0 -0.0183,-0.9 0.57037,-2 z m -195.25,-5.74398 c 4.5375,-0.1853 11.9625,-0.1853 16.5,0 4.5375,0.18529 0.825,0.33689 -8.25,0.33689 -9.075,0 -12.7875,-0.1516 -8.25,-0.33689 z m 29.0625,-0.93913 c 0.72187,-0.28887 1.58437,-0.25334 1.91666,0.0789 0.33229,0.33229 -0.25833,0.56864 -1.3125,0.52522 -1.16494,-0.048 -1.4019,-0.28494 -0.60416,-0.60417 z m 171.75179,-3.61001 c 0.37553,-0.98622 0.93469,-1.54122 1.24258,-1.23334 0.30788,0.30789 6.3e-4,1.1148 -0.68279,1.79313 -0.98761,0.98027 -1.10248,0.86541 -0.55979,-0.55979 z m -153.75179,-0.38999 c 0.72187,-0.28887 1.58437,-0.25334 1.91666,0.0789 0.33229,0.33229 -0.25833,0.56864 -1.3125,0.52522 -1.16494,-0.048 -1.4019,-0.28494 -0.60416,-0.60417 z m -84.8125,-1.31688 c -1.82797,-1.18133 -0.24909,-1.18133 2.5,0 1.31874,0.56668 1.48905,0.87815 0.5,0.9144 -0.825,0.0302 -2.175,-0.38125 -3,-0.9144 z m 240.03062,-1.5 c 0,-0.55 0.43622,-1.675 0.96938,-2.5 0.53315,-0.825 0.96937,-1.05 0.96937,-0.5 0,0.55 -0.43622,1.675 -0.96937,2.5 -0.53316,0.825 -0.96938,1.05 -0.96938,0.5 z m -255.03062,-5 c -1.375,-0.78603 -2.02351,-1.44508 -1.44113,-1.46457 0.58237,-0.0195 1.93237,0.62526 3,1.43276 2.46897,1.86744 1.68038,1.88353 -1.55887,0.0318 z m 118.08333,1.12292 c 1.02279,-0.92562 8.91667,-4.61161 8.91667,-4.16357 0,0.56844 -7.54685,4.54065 -8.62683,4.54065 -0.38858,0 -0.51901,-0.16969 -0.28984,-0.37708 z m 19.91667,-11.00048 c 0,-0.20765 0.7875,-0.99516 1.75,-1.75 1.58605,-1.24387 1.62142,-1.2085 0.37755,0.37756 -1.30637,1.66574 -2.12755,2.19548 -2.12755,1.37244 z m -158.12756,-3.37244 c -1.24387,-1.58606 -1.2085,-1.62143 0.37756,-0.37756 0.9625,0.75484 1.75,1.54235 1.75,1.75 0,0.82304 -0.82119,0.2933 -2.12756,-1.37244 z m 281.34555,0.25 c 0.0102,-1.1 0.36215,-3.35 0.78201,-5 0.68568,-2.69472 0.76526,-2.7456 0.782,-0.5 0.0103,1.375 -0.34165,3.625 -0.782,5 -0.62738,1.95899 -0.79661,2.06719 -0.78201,0.5 z m -119.21799,0.12244 c 0,-0.20765 0.7875,-0.99516 1.75,-1.75 1.58605,-1.24387 1.62142,-1.2085 0.37755,0.37756 -1.30637,1.66574 -2.12755,2.19548 -2.12755,1.37244 z m -168.05384,-5.37244 -3.44616,-3.75 3.75,3.44616 c 3.49041,3.20762 4.20978,4.05384 3.44616,4.05384 -0.16711,0 -1.85461,-1.6875 -3.75,-3.75 z m 172.05384,2.43709 c 0,-0.1721 1.4625,-1.6346 3.25,-3.25 l 3.25,-2.93709 -2.9371,3.25 c -2.73778,3.02945 -3.5629,3.70965 -3.5629,2.93709 z m 117.07894,-9.27043 c 0.048,-1.16494 0.28494,-1.4019 0.60417,-0.60416 0.28887,0.72187 0.25334,1.58437 -0.0789,1.91666 -0.33229,0.33229 -0.56864,-0.25833 -0.52522,-1.3125 z m -298.15463,-2.16666 -2.42431,-2.75 2.75,2.42431 c 2.57028,2.26589 3.20858,3.07569 2.42431,3.07569 -0.17913,0 -1.41663,-1.2375 -2.75,-2.75 z m 196.57569,-4.25 c 0.99548,-1.1 2.03497,-2 2.30997,-2 0.275,0 -0.31449,0.9 -1.30997,2 -0.99549,1.1 -2.03498,2 -2.30998,2 -0.275,0 0.31449,-0.9 1.30998,-2 z m 102.57894,-2.58334 c 0.048,-1.16494 0.28494,-1.4019 0.60417,-0.60416 0.28887,0.72187 0.25334,1.58437 -0.0789,1.91666 -0.33229,0.33229 -0.56864,-0.25833 -0.52522,-1.3125 z m -97.57894,-3.41666 c 0.99548,-1.1 2.03497,-2 2.30997,-2 0.275,0 -0.31449,0.9 -1.30997,2 -0.99549,1.1 -2.03498,2 -2.30998,2 -0.275,0 0.31449,-0.9 1.30998,-2 z m -162.5,-4 c -0.9013,-0.58246 -1.02464,-0.97549 -0.30902,-0.98469 0.65504,-0.008 1.4691,0.43469 1.80902,0.98469 0.7673,1.24152 0.42112,1.24152 -1.5,0 z m 36.76166,-0.70726 c 1.24391,-0.2392 3.04391,-0.23012 4,0.0202 0.95608,0.25029 -0.0617,0.44599 -2.26166,0.43489 -2.2,-0.0111 -2.98226,-0.21588 -1.73834,-0.45507 z m 18,0 c 1.24391,-0.2392 3.04391,-0.23012 4,0.0202 0.95608,0.25029 -0.0617,0.44599 -2.26166,0.43489 -2.2,-0.0111 -2.98226,-0.21588 -1.73834,-0.45507 z m -24.01166,-0.95502 c 0.6875,-0.27742 1.8125,-0.27742 2.5,0 0.6875,0.27741 0.125,0.50438 -1.25,0.50438 -1.375,0 -1.9375,-0.22697 -1.25,-0.50438 z m 31,0 c 0.6875,-0.27742 1.8125,-0.27742 2.5,0 0.6875,0.27741 0.125,0.50438 -1.25,0.50438 -1.375,0 -1.9375,-0.22697 -1.25,-0.50438 z m 5.53601,-5.83772 c 0.008,-2.75 0.20171,-3.75632 0.43157,-2.23625 0.22985,1.52006 0.22371,3.77006 -0.0136,5 -0.23736,1.22993 -0.42543,-0.0138 -0.41792,-2.76375 z m 35.71399,2.12244 c 0,-0.20765 0.7875,-0.99515 1.75,-1.75 1.58605,-1.24387 1.62142,-1.2085 0.37755,0.37756 -1.30637,1.66574 -2.12755,2.19548 -2.12755,1.37244 z m -85.65719,-8.12244 c 0.004,-4.4 0.17944,-6.07561 0.39068,-3.72357 0.21125,2.35204 0.20828,5.95204 -0.007,8 -0.21488,2.04796 -0.38772,0.12357 -0.38408,-4.27643 z m 92.65719,2 c 1.86578,-1.925 3.61733,-3.5 3.89233,-3.5 0.275,0 -1.02655,1.575 -2.89233,3.5 -1.86579,1.925 -3.61734,3.5 -3.89234,3.5 -0.275,0 1.02655,-1.575 2.89234,-3.5 z m 62,1.5 c 0.5887,-1.1 1.29536,-2 1.57036,-2 0.275,0 0.0183,0.9 -0.57036,2 -0.58871,1.1 -1.29537,2 -1.57037,2 -0.275,0 -0.0183,-0.9 0.57037,-2 z m -188.56291,-2.25 -2.93709,-3.25 3.25,2.93709 c 3.02945,2.73778 3.70965,3.56291 2.93709,3.56291 -0.1721,0 -1.6346,-1.4625 -3.25,-3.25 z m 276.64185,-0.33334 c 0.048,-1.16494 0.28494,-1.4019 0.60417,-0.60416 0.28887,0.72187 0.25334,1.58437 -0.0789,1.91666 -0.33229,0.33229 -0.56864,-0.25833 -0.52522,-1.3125 z m -142.07894,-6.91666 c 1.29174,-1.375 2.57362,-2.5 2.84862,-2.5 0.275,0 -0.55688,1.125 -1.84862,2.5 -1.29175,1.375 -2.57363,2.5 -2.84863,2.5 -0.275,0 0.55688,-1.125 1.84863,-2.5 z m -142.59502,-0.75 -1.90498,-2.25 2.25,1.90498 c 2.11444,1.79022 2.70524,2.59502 1.90498,2.59502 -0.18975,0 -1.20225,-1.0125 -2.25,-2.25 z m 202.66589,-0.25 c 0,-0.55 0.6431,-2.125 1.42913,-3.5 0.78602,-1.375 1.42913,-2.05 1.42913,-1.5 0,0.55 -0.64311,2.125 -1.42913,3.5 -0.78603,1.375 -1.42913,2.05 -1.42913,1.5 z m 81.00807,-2.08334 c 0.048,-1.16494 0.28494,-1.4019 0.60417,-0.60416 0.28887,0.72187 0.25334,1.58437 -0.0789,1.91666 -0.33229,0.33229 -0.56864,-0.25833 -0.52522,-1.3125 z m -240.80658,-3.41666 c 0,-2.475 0.19502,-3.4875 0.43337,-2.25 0.23835,1.2375 0.23835,3.2625 0,4.5 -0.23835,1.2375 -0.43337,0.225 -0.43337,-2.25 z m -46.39992,1.25 c -1.24387,-1.58606 -1.2085,-1.62143 0.37756,-0.37756 0.9625,0.75484 1.75,1.54235 1.75,1.75 0,0.82304 -0.82119,0.2933 -2.12756,-1.37244 z m 286.28545,-4.25 c 0,-1.375 0.22697,-1.9375 0.50439,-1.25 0.27741,0.6875 0.27741,1.8125 0,2.5 -0.27742,0.6875 -0.50439,0.125 -0.50439,-1.25 z m -290.15789,-1 c -0.58871,-1.1 -0.84537,-2 -0.57037,-2 0.275,0 0.98166,0.9 1.57037,2 0.5887,1.1 0.84536,2 0.57036,2 -0.275,0 -0.98166,-0.9 -1.57036,-2 z m 289.07894,-3.58334 c 0.048,-1.16494 0.28494,-1.4019 0.60417,-0.60416 0.28887,0.72187 0.25334,1.58437 -0.0789,1.91666 -0.33229,0.33229 -0.56864,-0.25833 -0.52522,-1.3125 z m -296.45541,-8.95532 c -0.96497,-2.5147 -0.68031,-3.16356 0.49854,-1.13634 0.58369,1.00375 0.8506,2.03566 0.59313,2.29313 -0.25747,0.25747 -0.74872,-0.26309 -1.09167,-1.15679 z m 226.45541,-2.04468 c 0.048,-1.16494 0.28494,-1.4019 0.60417,-0.60416 0.28887,0.72187 0.25334,1.58437 -0.0789,1.91666 -0.33229,0.33229 -0.56864,-0.25833 -0.52522,-1.3125 z m -49.93837,-7.41666 c 0,-0.825 0.38674,-2.4 0.85943,-3.5 0.54171,-1.26064 0.85943,-1.44548 0.85943,-0.5 0,0.825 -0.38675,2.4 -0.85943,3.5 -0.54172,1.26063 -0.85943,1.44547 -0.85943,0.5 z m 113.48296,-0.53866 c -0.96497,-2.5147 -0.68031,-3.16356 0.49854,-1.13634 0.58369,1.00375 0.8506,2.03566 0.59313,2.29313 -0.25747,0.25747 -0.74872,-0.26309 -1.09167,-1.15679 z m -226.48296,-2.46134 c 0,-0.825 0.38674,-2.4 0.85943,-3.5 0.54171,-1.26064 0.85943,-1.44548 0.85943,-0.5 0,0.825 -0.38675,2.4 -0.85943,3.5 -0.54172,1.26063 -0.85943,1.44547 -0.85943,0.5 z m -70.64057,-8 c -0.37968,-1.72866 -0.48188,-3.35146 -0.22711,-3.60623 0.25477,-0.25477 0.75072,0.97428 1.10211,2.73123 0.83365,4.16825 0.0258,4.97614 -0.875,0.875 z m 238.57894,-3.58334 c 0.048,-1.16494 0.28494,-1.4019 0.60417,-0.60416 0.28887,0.72187 0.25334,1.58437 -0.0789,1.91666 -0.33229,0.33229 -0.56864,-0.25833 -0.52522,-1.3125 z m 1.19342,-8.41666 c 0,-2.475 0.19502,-3.4875 0.43337,-2.25 0.23835,1.2375 0.23835,3.2625 0,4.5 -0.23835,1.2375 -0.43337,0.225 -0.43337,-2.25 z m -105.27236,2.62244 c 0,-0.20765 0.7875,-0.99516 1.75,-1.75 1.58605,-1.24387 1.62142,-1.2085 0.37755,0.37756 -1.30637,1.66574 -2.12755,2.19547 -2.12755,1.37244 z m 149.87244,-1.37244 c -1.24387,-1.58606 -1.2085,-1.62143 0.37756,-0.37756 1.66574,1.30637 2.19547,2.12756 1.37244,2.12756 -0.20765,0 -0.99515,-0.7875 -1.75,-1.75 z m -206.84182,0.25 c 0,-0.55 0.43622,-1.675 0.96938,-2.5 0.53315,-0.825 0.96937,-1.05 0.96937,-0.5 0,0.55 -0.43622,1.675 -0.96937,2.5 -0.53316,0.825 -0.96938,1.05 -0.96938,0.5 z m 199.43178,-8.75 -4.9624,-5.25 5.25,4.9624 c 2.8875,2.72933 5.25,5.09183 5.25,5.25 0,0.7462 -0.92644,-0.084 -5.5376,-4.9624 z m -133.5042,0 c 4.14397,-4.41519 5.0418,-5.2091 5.0418,-4.45821 0,0.16048 -2.1375,2.29798 -4.75,4.75 l -4.75,4.45821 z m 97.02582,-3.95305 c -0.26621,-3.13668 -0.1193,-5.33696 0.32646,-4.88952 0.44577,0.44745 0.66359,3.01382 0.48403,5.70305 l -0.32646,4.88952 z m -243.73184,-3.29695 c 0.0111,-2.2 0.21588,-2.98226 0.45508,-1.73835 0.23919,1.24392 0.23011,3.04392 -0.0202,4 -0.2503,0.95609 -0.446,-0.0616 -0.4349,-2.26165 z m 88.74782,0.5 c 0.5887,-1.1 1.29536,-2 1.57036,-2 0.275,0 0.0183,0.9 -0.57036,2 -0.58871,1.1 -1.29537,2 -1.57037,2 -0.275,0 -0.0183,-0.9 0.57037,-2 z m 183.87244,0.25 c -1.24387,-1.58606 -1.2085,-1.62143 0.37756,-0.37756 1.66574,1.30637 2.19547,2.12756 1.37244,2.12756 -0.20765,0 -0.99515,-0.7875 -1.75,-1.75 z m -114.43987,-3.1409 c 0.71345,-1.1544 4.56743,-3.48268 4.56743,-2.7593 0,0.2311 -1.18041,1.19361 -2.62313,2.13891 -1.44272,0.94531 -2.31765,1.22448 -1.9443,0.62039 z m 35.72532,-1.1091 c 0,-1.375 0.22697,-1.9375 0.50439,-1.25 0.27741,0.6875 0.27741,1.8125 0,2.5 -0.27742,0.6875 -0.50439,0.125 -0.50439,-1.25 z m -193.90571,-6.5 c 0.0111,-2.2 0.21588,-2.98226 0.45508,-1.73835 0.23919,1.24392 0.23011,3.04392 -0.0202,4 -0.2503,0.95609 -0.446,-0.0616 -0.4349,-2.26165 z m 204.56032,2.81688 c 0.72187,-0.28887 1.58437,-0.25334 1.91666,0.0789 0.33229,0.33229 -0.25833,0.56864 -1.3125,0.52522 -1.16494,-0.048 -1.4019,-0.28494 -0.60416,-0.60417 z m 17,0 c 0.72187,-0.28887 1.58437,-0.25334 1.91666,0.0789 0.33229,0.33229 -0.25833,0.56864 -1.3125,0.52522 -1.16494,-0.048 -1.4019,-0.28494 -0.60416,-0.60417 z m -125.8125,-2.69444 c 0,-0.20765 0.7875,-0.99516 1.75,-1.75 1.58605,-1.24387 1.62142,-1.2085 0.37755,0.37756 -1.30637,1.66574 -2.12755,2.19547 -2.12755,1.37244 z m 76,-0.62244 c 0.825,-0.53316 1.95,-0.96938 2.5,-0.96938 0.55,0 0.325,0.43622 -0.5,0.96938 -0.825,0.53315 -1.95,0.96937 -2.5,0.96937 -0.55,0 -0.325,-0.43622 0.5,-0.96937 z m 82,0 c -0.825,-0.53316 -1.05,-0.96938 -0.5,-0.96938 0.55,0 1.675,0.43622 2.5,0.96938 0.825,0.53315 1.05,0.96937 0.5,0.96937 -0.55,0 -1.675,-0.43622 -2.5,-0.96937 z m -152,-6.5 c 1.29174,-1.375 2.57362,-2.5 2.84862,-2.5 0.275,0 -0.55688,1.125 -1.84862,2.5 -1.29175,1.375 -2.57363,2.5 -2.84863,2.5 -0.275,0 0.55688,-1.125 1.84863,-2.5 z m 201.40498,-0.75 -1.90498,-2.25 2.25,1.90498 c 1.2375,1.04775 2.25,2.06025 2.25,2.25 0,0.80026 -0.8048,0.20946 -2.59502,-1.90498 z m -112.65498,0.58772 c 0.6875,-0.27742 1.8125,-0.27742 2.5,0 0.6875,0.27741 0.125,0.50438 -1.25,0.50438 -1.375,0 -1.9375,-0.22697 -1.25,-0.50438 z m 44.0625,-0.0208 c 0.72187,-0.28887 1.58437,-0.25334 1.91666,0.079 0.33229,0.33229 -0.25833,0.56864 -1.3125,0.52522 -1.16494,-0.048 -1.4019,-0.28494 -0.60416,-0.60417 z m -38.54347,-1.00987 c 0.97297,-0.25355 2.32297,-0.23687 3,0.037 0.67703,0.27392 -0.11903,0.48137 -1.76903,0.46099 -1.65,-0.0204 -2.20394,-0.2445 -1.23097,-0.49804 z m 33,0 c 0.97297,-0.25355 2.32297,-0.23687 3,0.037 0.67703,0.27392 -0.11903,0.48137 -1.76903,0.46099 -1.65,-0.0204 -2.20394,-0.2445 -1.23097,-0.49804 z m -22.50737,-1.01427 c 1.24391,-0.2392 3.04391,-0.23012 4,0.0202 0.95608,0.25029 -0.0617,0.44599 -2.26166,0.43489 -2.2,-0.0111 -2.98226,-0.21588 -1.73834,-0.45507 z m 11,0 c 1.24391,-0.2392 3.04391,-0.23012 4,0.0202 0.95608,0.25029 -0.0617,0.44599 -2.26166,0.43489 -2.2,-0.0111 -2.98226,-0.21588 -1.73834,-0.45507 z m -111.76166,-2.6703 c 0,-0.20765 0.7875,-0.99515 1.75,-1.75 1.58605,-1.24387 1.62142,-1.2085 0.37755,0.37756 -1.30637,1.66574 -2.12755,2.19548 -2.12755,1.37244 z m 9.5,-8.62244 c 0.99548,-1.1 2.03497,-2 2.30997,-2 0.275,0 -0.31449,0.9 -1.30997,2 -0.99549,1.1 -2.03498,2 -2.30998,2 -0.275,0 0.31449,-0.9 1.30998,-2 z m 173.37244,-1.75 c -1.24387,-1.58606 -1.2085,-1.62143 0.37756,-0.37756 1.66574,1.30637 2.19547,2.12756 1.37244,2.12756 -0.20765,0 -0.99515,-0.7875 -1.75,-1.75 z m -285.7935,-1.83334 c 0.048,-1.16494 0.28494,-1.4019 0.60417,-0.60416 0.28887,0.72187 0.25334,1.58437 -0.0789,1.91666 -0.33229,0.33229 -0.56864,-0.25833 -0.52522,-1.3125 z m 278.92106,-3.50601 c -2.15377,-1.76168 -2.19611,-1.89635 -0.3057,-0.97239 1.20687,0.58987 2.47093,1.52007 2.80902,2.06711 0.90257,1.4604 0.2964,1.19532 -2.50332,-1.09472 z m -277.92106,-0.49399 c 0.048,-1.16494 0.28494,-1.4019 0.60417,-0.60416 0.28887,0.72187 0.25334,1.58437 -0.0789,1.91666 -0.33229,0.33229 -0.56864,-0.25833 -0.52522,-1.3125 z m 128.92106,-4.8463 c 0,-0.275 0.9,-0.98166 2,-1.57036 1.1,-0.58871 2,-0.84537 2,-0.57037 0,0.275 -0.9,0.98166 -2,1.57037 -1.1,0.5887 -2,0.84536 -2,0.57036 z m 138,-1.57036 c -0.9013,-0.58246 -1.02464,-0.97549 -0.30902,-0.98469 0.65504,-0.008 1.4691,0.43469 1.80902,0.98469 0.7673,1.24152 0.42112,1.24152 -1.5,0 z m -14,-7 c -0.825,-0.53316 -1.05,-0.96938 -0.5,-0.96938 0.55,0 1.675,0.43622 2.5,0.96938 0.825,0.53315 1.05,0.96937 0.5,0.96937 -0.55,0 -1.675,-0.43622 -2.5,-0.96937 z m -18.1875,-6.68312 c 0.72187,-0.28887 1.58437,-0.25334 1.91666,0.0789 0.33229,0.33229 -0.25833,0.56864 -1.3125,0.52522 -1.16494,-0.048 -1.4019,-0.28494 -0.60416,-0.60417 z m -66,-1 c 0.72187,-0.28887 1.58437,-0.25334 1.91666,0.0789 0.33229,0.33229 -0.25833,0.56864 -1.3125,0.52522 -1.16494,-0.048 -1.4019,-0.28494 -0.60416,-0.60417 z m 60.9375,0.0208 c 0.6875,-0.27742 1.8125,-0.27742 2.5,0 0.6875,0.27741 0.125,0.50438 -1.25,0.50438 -1.375,0 -1.9375,-0.22697 -1.25,-0.50438 z m -56.48097,-1.03071 c 0.97297,-0.25355 2.32297,-0.23687 3,0.0371 0.67703,0.27392 -0.11903,0.48137 -1.76903,0.46099 -1.65,-0.0204 -2.20394,-0.2445 -1.23097,-0.49804 z m 51.48097,0.0307 c 0.6875,-0.27742 1.8125,-0.27742 2.5,0 0.6875,0.27741 0.125,0.50438 -1.25,0.50438 -1.375,0 -1.9375,-0.22697 -1.25,-0.50438 z m -33,-2 c 0.6875,-0.27742 1.8125,-0.27742 2.5,0 0.6875,0.27741 0.125,0.50438 -1.25,0.50438 -1.375,0 -1.9375,-0.22697 -1.25,-0.50438 z m 16.0625,-0.0208 c 0.72187,-0.28887 1.58437,-0.25334 1.91666,0.0789 0.33229,0.33229 -0.25833,0.56864 -1.3125,0.52522 -1.16494,-0.048 -1.4019,-0.28494 -0.60416,-0.60417 z m -29.0625,-11.02262 c 1.2375,-0.23835 3.2625,-0.23835 4.5,0 1.2375,0.23836 0.225,0.43337 -2.25,0.43337 -2.475,0 -3.4875,-0.19501 -2.25,-0.43337 z m 40.01166,-0.002 c 1.24391,-0.2392 3.04391,-0.23012 4,0.0202 0.95608,0.25029 -0.0617,0.44599 -2.26166,0.43489 -2.2,-0.0111 -2.98226,-0.21588 -1.73834,-0.45507 z m -199.01547,-3.79274 c 1.69908,-2.2 5.25288,-6.025 7.89732,-8.5 3.68424,-3.44818 3.31025,-2.86383 -1.60002,2.5 -8.79381,9.60607 -9.88603,10.64673 -6.2973,6 z m 173.54951,2.75586 c 4.28764,-0.1879 11.03764,-0.18675 15,0.003 3.96236,0.18931 0.4543,0.34305 -7.7957,0.34164 -8.25,-0.001 -11.49194,-0.15628 -7.2043,-0.34419 z m -32.42326,-10.00586 c -1.24387,-1.58606 -1.2085,-1.62143 0.37756,-0.37756 1.66574,1.30637 2.19547,2.12756 1.37244,2.12756 -0.20765,0 -0.99515,-0.7875 -1.75,-1.75 z m -7.46746,-6.5 -1.90498,-2.25 2.25,1.90498 c 2.11444,1.79022 2.70524,2.59502 1.90498,2.59502 -0.18975,0 -1.20225,-1.0125 -2.25,-2.25 z m -118.90498,-0.75 c 0.99548,-1.1 2.03497,-2 2.30997,-2 0.275,0 -0.31449,0.9 -1.30997,2 -0.99549,1.1 -2.03498,2 -2.30998,2 -0.275,0 0.31449,-0.9 1.30998,-2 z m 112.94113,-3.55517 c -1.86403,-1.49339 -1.85176,-1.51186 0.30887,-0.46482 1.2375,0.5997 2.25,1.29952 2.25,1.55517 0,0.76522 -0.51861,0.54424 -2.55887,-1.09035 z m -95.44113,-7.44483 c 0.825,-0.53316 1.95,-0.96938 2.5,-0.96938 0.55,0 0.325,0.43622 -0.5,0.96938 -0.825,0.53315 -1.95,0.96937 -2.5,0.96937 -0.55,0 -0.325,-0.43622 0.5,-0.96937 z m -51,-3 c 1.1749,-1.65 2.36118,-3 2.63618,-3 0.275,0 -0.46128,1.35 -1.63618,3 -1.17491,1.65 -2.36119,3 -2.63619,3 -0.275,0 0.46128,-1.35 1.63619,-3 z m 117.8125,-2.68312 c 0.72187,-0.28887 1.58437,-0.25334 1.91666,0.0789 0.33229,0.33229 -0.25833,0.56864 -1.3125,0.52522 -1.16494,-0.048 -1.4019,-0.28494 -0.60416,-0.60417 z m 85.11181,-2.06688 -2.42431,-2.75 2.75,2.42431 c 1.5125,1.33337 2.75,2.57087 2.75,2.75 0,0.78427 -0.8098,0.14598 -3.07569,-2.42431 z m -133.17431,1.08772 c 0.6875,-0.27742 1.8125,-0.27742 2.5,0 0.6875,0.27741 0.125,0.50438 -1.25,0.50438 -1.375,0 -1.9375,-0.22697 -1.25,-0.50438 z m 39.25,-0.33772 c -3.39181,-0.71395 -3.40727,-0.73771 -0.5,-0.76868 1.65,-0.0176 4.125,0.32832 5.5,0.76868 3.27891,1.05009 -0.0112,1.05009 -5,0 z m -33.73097,-0.69299 c 0.97297,-0.25355 2.32297,-0.23687 3,0.0371 0.67703,0.27392 -0.11903,0.48137 -1.76903,0.46099 -1.65,-0.0204 -2.20394,-0.2445 -1.23097,-0.49804 z m 10.49263,-1.01427 c 1.24391,-0.2392 3.04391,-0.23012 4,0.0202 0.95608,0.25029 -0.0617,0.44599 -2.26166,0.43489 -2.2,-0.0111 -2.98226,-0.21588 -1.73834,-0.45507 z m 10,0 c 1.24391,-0.2392 3.04391,-0.23012 4,0.0202 0.95608,0.25029 -0.0617,0.44599 -2.26166,0.43489 -2.2,-0.0111 -2.98226,-0.21588 -1.73834,-0.45507 z m -87.76166,-3.79274 c 1.29174,-1.375 2.57362,-2.5 2.84862,-2.5 0.275,0 -0.55688,1.125 -1.84862,2.5 -1.29175,1.375 -2.57363,2.5 -2.84863,2.5 -0.275,0 0.55688,-1.125 1.84863,-2.5 z m 7,-7 c 1.29174,-1.375 2.57362,-2.5 2.84862,-2.5 0.275,0 -0.55688,1.125 -1.84862,2.5 -1.29175,1.375 -2.57363,2.5 -2.84863,2.5 -0.275,0 0.55688,-1.125 1.84863,-2.5 z m 175.92431,-0.25 -2.42431,-2.75 2.75,2.42431 c 2.57028,2.26589 3.20858,3.07569 2.42431,3.07569 -0.17913,0 -1.41663,-1.2375 -2.75,-2.75 z m -6.05187,-5 c -1.24387,-1.58606 -1.2085,-1.62143 0.37756,-0.37756 1.66574,1.30637 2.19547,2.12756 1.37244,2.12756 -0.20765,0 -0.99515,-0.7875 -1.75,-1.75 z m -163.87244,0.37244 c 0,-0.20765 0.7875,-0.99515 1.75,-1.75 1.58605,-1.24387 1.62142,-1.2085 0.37755,0.37756 -1.30637,1.66574 -2.12755,2.19548 -2.12755,1.37244 z m 150.44113,-9.17761 c -1.86403,-1.49339 -1.85176,-1.51186 0.30887,-0.46482 1.2375,0.5997 2.25,1.29952 2.25,1.55517 0,0.76522 -0.51861,0.54424 -2.55887,-1.09035 z m -127,-5.88967 c 1.06762,-0.85534 2.38012,-1.55516 2.91666,-1.55516 1.27055,0 0.70324,0.4619 -2.35779,1.91971 -2.35727,1.12264 -2.38918,1.10183 -0.55887,-0.36455 z m 5.55887,-2.55516 c 0.825,-0.53316 1.95,-0.96938 2.5,-0.96938 0.55,0 0.325,0.43622 -0.5,0.96938 -0.825,0.53315 -1.95,0.96937 -2.5,0.96937 -0.55,0 -0.325,-0.43622 0.5,-0.96937 z m 198.8125,-1.68312 c 0.72187,-0.28887 1.58437,-0.25334 1.91666,0.0789 0.33229,0.33229 -0.25833,0.56864 -1.3125,0.52522 -1.16494,-0.048 -1.4019,-0.28494 -0.60416,-0.60417 z m -10.83458,-11.06688 -8.47792,-8.75 8.75,8.47792 c 4.8125,4.66286 8.75,8.60036 8.75,8.75 0,0.72761 -1.14804,-0.35118 -9.02208,-8.47792 z m -170.47792,6.75 c 1.1,-0.47269 2.9,-0.84621 4,-0.83004 1.60778,0.0236 1.50973,0.18641 -0.5,0.83004 -3.41917,1.09501 -6.04823,1.09501 -3.5,0 z m 66.5,0 c -2.00974,-0.64363 -2.10779,-0.80641 -0.5,-0.83004 1.1,-0.0162 2.9,0.35735 4,0.83004 2.54822,1.09501 -0.0808,1.09501 -3.5,0 z m -59.25,-1.66228 c 0.6875,-0.27742 1.8125,-0.27742 2.5,0 0.6875,0.27741 0.125,0.50438 -1.25,0.50438 -1.375,0 -1.9375,-0.22697 -1.25,-0.50438 z m 53,0 c 0.6875,-0.27742 1.8125,-0.27742 2.5,0 0.6875,0.27741 0.125,0.50438 -1.25,0.50438 -1.375,0 -1.9375,-0.22697 -1.25,-0.50438 z m -33.9375,-2.02084 c 0.72187,-0.28887 1.58437,-0.25334 1.91666,0.0789 0.33229,0.33229 -0.25833,0.56864 -1.3125,0.52522 -1.16494,-0.048 -1.4019,-0.28494 -0.60416,-0.60417 z m 14.9375,0.0208 c 0.6875,-0.27742 1.8125,-0.27742 2.5,0 0.6875,0.27741 0.125,0.50438 -1.25,0.50438 -1.375,0 -1.9375,-0.22697 -1.25,-0.50438 z m 209.5,-4.08493 c 7.0125,-0.1719 18.4875,-0.1719 25.5,0 7.0125,0.1719 1.275,0.31254 -12.75,0.31254 -14.025,0 -19.7625,-0.14064 -12.75,-0.31254 z m -92.84502,-10.50279 -1.90498,-2.25 2.25,1.90498 c 2.11444,1.79022 2.70524,2.59502 1.90498,2.59502 -0.18975,0 -1.20225,-1.0125 -2.25,-2.25 z m 183.15931,-9.45688 c -0.54269,-1.42519 -0.42782,-1.54006 0.55979,-0.55979 0.68342,0.67833 0.99067,1.48524 0.68279,1.79313 -0.30789,0.30788 -0.86705,-0.24712 -1.24258,-1.23334 z m -6.56429,-12.29312 c -0.58871,-1.1 -0.84537,-2 -0.57037,-2 0.275,0 0.98166,0.9 1.57037,2 0.5887,1.1 0.84536,2 0.57036,2 -0.275,0 -0.98166,-0.9 -1.57036,-2 z m -7.59502,-9.25 -1.90498,-2.25 2.25,1.90498 c 1.2375,1.04775 2.25,2.06025 2.25,2.25 0,0.80026 -0.8048,0.20946 -2.59502,-1.90498 z m -249.59248,-7.43312 c 0.72187,-0.28887 1.58437,-0.25334 1.91666,0.079 0.33229,0.33229 -0.25833,0.56864 -1.3125,0.52522 -1.16494,-0.048 -1.4019,-0.28494 -0.60416,-0.60417 z m -80.54347,-1.00987 c 0.97297,-0.25355 2.32297,-0.23687 3,0.037 0.67703,0.27392 -0.11903,0.48137 -1.76903,0.46099 -1.65,-0.0204 -2.20394,-0.2445 -1.23097,-0.49804 z m 73.48097,0.0307 c 0.6875,-0.27742 1.8125,-0.27742 2.5,0 0.6875,0.27741 0.125,0.50438 -1.25,0.50438 -1.375,0 -1.9375,-0.22697 -1.25,-0.50438 z m -65.48097,-1.03071 c 0.97297,-0.25355 2.32297,-0.23687 3,0.037 0.67703,0.27392 -0.11903,0.48137 -1.76903,0.46099 -1.65,-0.0204 -2.20394,-0.2445 -1.23097,-0.49804 z m 58,0 c 0.97297,-0.25355 2.32297,-0.23687 3,0.037 0.67703,0.27392 -0.11903,0.48137 -1.76903,0.46099 -1.65,-0.0204 -2.20394,-0.2445 -1.23097,-0.49804 z m -37.06962,-1.05084 c 4.78468,-0.18291 12.88468,-0.18377 18,-0.002 5.11532,0.18186 1.20059,0.33151 -8.69941,0.33256 -9.9,10e-4 -14.08527,-0.14775 -9.30059,-0.33065 z m -134.8912,-40.00382 c 7.04452,-0.17214 18.29452,-0.17164 25,10e-4 6.70548,0.17275 0.94179,0.31359 -12.80821,0.31298 -13.75,-6.1e-4 -19.23631,-0.14195 -12.19179,-0.31409 z m 90.80779,-16.42057 c -0.0638,-0.91751 -0.37498,-2.49251 -0.69151,-3.5 -0.54548,-1.73622 -0.51589,-1.73885 0.56727,-0.0504 0.62853,0.97978 0.93971,2.55478 0.69151,3.5 -0.40655,1.54825 -0.46277,1.55324 -0.56727,0.0504 z m -8.116,-16.83178 c -0.58871,-1.1 -0.84537,-2 -0.57037,-2 0.275,0 0.98166,0.9 1.57037,2 0.5887,1.1 0.84536,2 0.57036,2 -0.275,0 -0.98166,-0.9 -1.57036,-2 z m -7.59502,-9.25 -1.90498,-2.25 2.25,1.90498 c 1.2375,1.04775 2.25,2.06025 2.25,2.25 0,0.80026 -0.8048,0.20946 -2.59502,-1.90498 z m -116.40498,-6.75 c 0.825,-0.53316 1.95,-0.96938 2.5,-0.96938 0.55,0 0.325,0.43622 -0.5,0.96938 -0.825,0.53315 -1.95,0.96937 -2.5,0.96937 -0.55,0 -0.325,-0.43622 0.5,-0.96937 z m 105,0 c -0.825,-0.53316 -1.05,-0.96938 -0.5,-0.96938 0.55,0 1.675,0.43622 2.5,0.96938 0.825,0.53315 1.05,0.96937 0.5,0.96937 -0.55,0 -1.675,-0.43622 -2.5,-0.96937 z"
       id="path358804" /><path
       style="fill:#001c01"
       d="m -255.06174,-276.07565 c -18.95249,-3.59064 -30.93778,-7.57869 -48,-15.97178 -23.91132,-11.76223 -33.15902,-18.27424 -50.5604,-35.60344 -15.36968,-15.30594 -24.38862,-27.28169 -32.94814,-43.75 -2.35839,-4.5375 -4.74424,-8.25 -5.30187,-8.25 -0.55763,0 -2.98329,1.15415 -5.39035,2.56478 -8.55857,5.01566 -12.51744,5.43813 -50.59803,5.39959 -26.14002,-0.0264 -36.61698,-0.38441 -40.70121,-1.39061 -6.91629,-1.70391 -19.31399,-8.52766 -24.30395,-13.37701 -4.73144,-4.59811 -11.08156,-15.47062 -13.70748,-23.46958 -1.95875,-5.96663 -1.98857,-9.14989 -1.98857,-212.22717 0,-205.91861 0.003,-206.1775 2.07477,-212.58485 2.82475,-8.73402 9.20064,-19.07835 14.93957,-24.23814 2.61643,-2.3524 9.15637,-6.50457 14.53319,-9.22705 l 9.77603,-4.94996 h 39.17644 39.17643 l 9.77604,4.94996 c 11.89125,6.02098 17.96342,11.30803 23.48744,20.45059 7.49122,12.39839 8.04373,15.65618 8.05245,47.48029 l 0.008,27.88084 3.75,-0.64965 c 16.72463,-2.89739 25.69963,-3.5769 47.46561,-3.59371 38.75497,-0.0299 57.77353,3.85758 85.64123,17.50564 20.88283,10.22726 33.89859,19.28899 49.14316,34.21407 6.875,6.73092 12.725,12.24437 13,12.25211 0.275,0.008 0.3566,-4.81039 0.18133,-10.70696 -0.3728,-12.54231 0.5608,-16.74146 6.17702,-27.78318 5.75292,-11.31048 12.62136,-17.91361 25.05242,-24.08471 l 9.90136,-4.91529 h 39.59393 39.59394 l 7.5,3.46486 c 16.79034,7.75682 26.06427,17.77071 31.59383,34.1147 l 2.40617,7.11202 v 205.93575 c 0,205.65919 -0.003,205.94411 -2.07217,212.15421 -2.95862,8.87865 -8.47484,18.55933 -13.28473,23.314 -5.34351,5.28217 -17.19802,11.97524 -24.6134,13.89676 -4.65689,1.20672 -12.87633,1.50533 -41.17405,1.49583 -38.14887,-0.0128 -40.3766,-0.25349 -51.00282,-5.51026 l -5.64716,-2.79364 -5.35284,2.16276 c -2.94406,1.18951 -11.65283,3.81444 -19.35283,5.83316 l -14,3.67041 -32.5,0.27542 c -23.82146,0.20188 -34.36923,-0.0787 -39.5,-1.05076 z m 70,-58.39641 c 19.81909,-5.03802 38.24165,-14.86781 52.69237,-28.11527 6.94892,-6.3703 15.35568,-16.37104 18.12662,-21.56354 1.50493,-2.8201 1.60333,-1.45584 1.64097,22.75 l 0.04,25.75 h 25 25 v -195 -195 h -25 -25 v 75.23665 75.23665 l -3.39243,-4.98665 c -5.89201,-8.66087 -19.34604,-21.34942 -29.57057,-27.88812 -17.47106,-11.17296 -35.68572,-17.87412 -54.59731,-20.08633 -15.85981,-1.85522 -21.4578,-1.86453 -37.49281,-0.0623 -54.93974,6.17478 -100.00171,46.57856 -113.25791,101.55012 -4.2221,17.50842 -4.89707,21.9125 -5.04597,32.92386 l -0.143,10.57614 7,2.48135 c 6.32608,2.24246 8.54037,2.48314 23,2.5 20.64948,0.0241 20.5,0.10106 20.5,-10.5587 0,-12.8971 4.87473,-32.78195 11.02825,-44.98602 16.90379,-33.52476 46.82157,-51.94645 84.47175,-52.01296 15.1871,-0.0268 25.92669,1.92761 37.70302,6.86136 12.78682,5.3571 19.84256,10.12022 29.84377,20.14663 19.7439,19.79366 29.3144,45.26177 29.3368,78.06834 0.0346,50.70442 -24.87664,88.84777 -66.61202,101.99426 -21.48566,6.7679 -38.25351,6.74009 -59.7104,-0.0991 -16.771,-5.34556 -29.73307,-13.9217 -40.8209,-27.00849 -5.52217,-6.51771 -7.13917,-7.85735 -8.94751,-7.41275 -6.78985,1.66936 -28.24551,2.50232 -39.95782,1.55125 -6.96578,-0.56564 -12.91873,-0.77476 -13.22877,-0.46472 -0.71458,0.71458 4.69606,11.18419 10.67478,20.65574 4.9652,7.86592 16.78069,21.75611 24.18478,28.43143 12.4246,11.20167 33.61842,22.68559 49.88825,27.03206 17.67614,4.72216 22.46189,5.27889 42.14602,4.90288 16.65494,-0.31814 19.69679,-0.65761 30.5,-3.40379 z m -99.5,-91.58711 c 44.08785,-10.48635 77.48853,-40.26854 94.86944,-84.5917 5.02248,-12.80785 9.50502,-33.35369 10.72227,-49.14575 0.79654,-10.33408 1.23373,-9.90668 -13.16374,-12.86908 -10.74484,-2.21083 -21.63406,-2.53026 -30.95033,-0.9079 l -6.18617,1.07728 -0.63903,10.67272 c -1.18538,19.7976 -8.00473,40.49089 -18.31636,55.58093 -7.7556,11.34954 -21.43323,23.59935 -32.6793,29.26788 -25.09357,12.6483 -50.79868,14.61882 -76.5308,5.86677 -25.57899,-8.69998 -45.85044,-28.08126 -56.64571,-54.15827 -8.74809,-21.13186 -11.09544,-49.67865 -6.05335,-73.61651 4.41599,-20.96538 12.89197,-37.04116 27.07308,-51.34763 10.08714,-10.17631 16.84339,-14.85579 29.41109,-20.37056 21.58265,-9.47057 53.89435,-9.515 75.85315,-0.10429 13.44736,5.76303 27.30028,16.40879 37.24082,28.619 l 2.49494,3.0646 9.5,-0.89923 c 5.225,-0.49457 17.93411,-0.6587 28.24247,-0.36473 l 18.74247,0.53449 -1.54498,-3.69765 c -5.47145,-13.09503 -15.4309,-27.31258 -27.87665,-39.79516 -15.31217,-15.35748 -30.2451,-24.49518 -52.06331,-31.8584 -8.99652,-3.03615 -13.93738,-4.00836 -27.12745,-5.33788 -14.92408,-1.5043 -17.31179,-1.50288 -32,0.019 -13.55054,1.40399 -17.62804,2.25835 -27.87255,5.84016 -12.79424,4.47328 -18.55557,7.36082 -30.5,15.28638 -8.78901,5.83181 -25.67764,22.53754 -29.69705,29.37543 l -2.80295,4.76843 -0.25625,-76.25 -0.25625,-76.25 h -24.49375 -24.49375 v 195 195 h 24.5 24.5 v -25.23669 -25.23665 l 3.65875,5.48665 c 5.57563,8.3612 20.8057,22.95415 30.69642,29.41229 15.44369,10.08395 30.98275,15.76086 54.64483,19.96349 1.375,0.24421 10.6,0.33014 20.5,0.19094 15.58419,-0.21911 19.54343,-0.62018 29.5,-2.98836 z"
       id="path358803" /></g><text
     xml:space="preserve"
     style="font-weight:bold;font-size:29.3333px;line-height:1;font-family:Lato;-inkscape-font-specification:'Lato Bold';text-decoration-color:#000000;letter-spacing:2px;word-spacing:0px;fill:#000000;stroke-width:7.55906;-inkscape-stroke:none;stop-color:#000000"
     x="59.961113"
     y="47.947617"
     id="text358810"><tspan
       sodipodi:role="line"
       id="tspan358810"
       x="59.961113"
       y="47.947617"
       style="font-size:29.3333px">BallecerDigital</tspan></text></svg>
